<svg xmlns="http://www.w3.org/2000/svg" width="760" height="430" viewBox="0 0 760 430">
  <defs>
    <linearGradient id="bg" x1="0" x2="1" y1="0" y2="1">
      <stop offset="0" stop-color="#eef2ff"/>
      <stop offset="0.58" stop-color="#fff7ed"/>
      <stop offset="1" stop-color="#fdf2f8"/>
    </linearGradient>
    <pattern id="greenHatch" width="8" height="8" patternUnits="userSpaceOnUse" patternTransform="rotate(-30)">
      <line x1="0" y1="0" x2="0" y2="8" stroke="#14b8a6" stroke-width="1.7" opacity=".45"/>
    </pattern>
    <pattern id="roseHatch" width="8" height="8" patternUnits="userSpaceOnUse" patternTransform="rotate(-24)">
      <line x1="0" y1="0" x2="0" y2="8" stroke="#fb7185" stroke-width="1.7" opacity=".45"/>
    </pattern>
    <style>
      .edge { stroke:#111827; stroke-linecap:round; stroke-linejoin:round; fill:none; }
      .label { font-family:"Comic Sans MS","Bradley Hand","Segoe Print",cursive; fill:#111827; }
    </style>
  </defs>
  <rect x="18" y="18" width="724" height="394" rx="24" fill="url(#bg)"/>
  <text class="label" x="292" y="66" font-size="40">DGP graph</text>
  <g opacity=".95">
    <path class="edge" d="M156 292 C236 292 323 287 408 288" stroke-width="3"/>
    <path class="edge" d="M158 295 C238 295 324 290 410 291" stroke-width="1.4" opacity=".65"/>
    <path class="edge" d="M156 292 C198 224 248 159 294 114" stroke-width="3"/>
    <path class="edge" d="M159 294 C201 226 250 161 296 116" stroke-width="1.4" opacity=".65"/>
    <path class="edge" d="M294 114 C334 174 372 234 408 288" stroke-width="3"/>
    <path class="edge" d="M296 116 C336 176 374 236 410 290" stroke-width="1.4" opacity=".65"/>
    <path class="edge" d="M156 292 C274 250 383 213 505 198" stroke-width="3"/>
    <path class="edge" d="M408 288 C443 252 470 223 505 198" stroke-width="3"/>
    <path class="edge" d="M294 114 C371 144 439 171 505 198" stroke-width="3"/>
    <path class="edge" d="M408 288 C475 293 544 294 610 288" stroke-width="3"/>
    <path class="edge" d="M505 198 C548 223 578 254 610 288" stroke-width="3"/>
    <path class="edge" d="M294 114 C416 158 514 221 610 288" stroke-width="2" stroke-dasharray="8 9" opacity=".55"/>
  </g>
  <g stroke="#111827" stroke-width="3">
    <circle cx="156" cy="292" r="27" fill="#99f6e4"/>
    <circle cx="408" cy="288" r="27" fill="#99f6e4"/>
    <circle cx="294" cy="114" r="27" fill="#99f6e4"/>
    <circle cx="156" cy="292" r="23" fill="url(#greenHatch)"/>
    <circle cx="408" cy="288" r="23" fill="url(#greenHatch)"/>
    <circle cx="294" cy="114" r="23" fill="url(#greenHatch)"/>
    <circle cx="505" cy="198" r="28" fill="#fecdd3"/>
    <circle cx="610" cy="288" r="28" fill="#fecdd3"/>
    <circle cx="505" cy="198" r="24" fill="url(#roseHatch)"/>
    <circle cx="610" cy="288" r="24" fill="url(#roseHatch)"/>
  </g>
  <text class="label" x="148" y="301" font-size="23">1</text>
  <text class="label" x="400" y="297" font-size="23">2</text>
  <text class="label" x="286" y="123" font-size="23">3</text>
  <text class="label" x="497" y="207" font-size="23">4</text>
  <text class="label" x="602" y="297" font-size="23">5</text>
  <text class="label" x="115" y="350" font-size="22" fill="#0f766e">known clique</text>
  <text class="label" x="505" y="155" font-size="22" fill="#be123c">new vertices</text>
</svg>
