<?xml version="1.0" encoding="UTF-8" standalone="no"?>
<svg
   width="458.97247pt"
   height="228.44702pt"
   viewBox="0 0 458.97247 228.44702"
   version="1.1"
   id="svg191"
   sodipodi:docname="gaussian_transform_1d.svg"
   inkscape:version="1.4.3 (0d15f75, 2025-12-25)"
   xmlns:inkscape="http://www.inkscape.org/namespaces/inkscape"
   xmlns:sodipodi="http://sodipodi.sourceforge.net/DTD/sodipodi-0.dtd"
   xmlns:xlink="http://www.w3.org/1999/xlink"
   xmlns="http://www.w3.org/2000/svg"
   xmlns:svg="http://www.w3.org/2000/svg"
   xmlns:rdf="http://www.w3.org/1999/02/22-rdf-syntax-ns#"
   xmlns:cc="http://creativecommons.org/ns#"
   xmlns:dc="http://purl.org/dc/elements/1.1/">
  <sodipodi:namedview
     id="namedview191"
     pagecolor="#ffffff"
     bordercolor="#000000"
     borderopacity="0.25"
     inkscape:showpageshadow="2"
     inkscape:pageopacity="0.0"
     inkscape:pagecheckerboard="0"
     inkscape:deskcolor="#d1d1d1"
     inkscape:document-units="pt"
     inkscape:zoom="1.4142136"
     inkscape:cx="379.00922"
     inkscape:cy="123.39013"
     inkscape:window-width="2560"
     inkscape:window-height="1494"
     inkscape:window-x="-11"
     inkscape:window-y="-11"
     inkscape:window-maximized="1"
     inkscape:current-layer="layer4" />
  <metadata
     id="metadata1">
    <rdf:RDF>
      <cc:Work>
        <dc:type
           rdf:resource="http://purl.org/dc/dcmitype/StillImage" />
        <dc:date>2026-04-26T08:50:29.176305</dc:date>
        <dc:format>image/svg+xml</dc:format>
        <dc:creator>
          <cc:Agent>
            <dc:title>Matplotlib v3.10.9, https://matplotlib.org/</dc:title>
          </cc:Agent>
        </dc:creator>
      </cc:Work>
    </rdf:RDF>
  </metadata>
  <defs
     id="defs1">
    <style
       type="text/css"
       id="style1">*{stroke-linejoin: round; stroke-linecap: butt}</style>
    <defs
       id="defs55">
      <path
         id="LiberationSans-47"
         d="m 322,2222 q 0,1072 575,1659 575,588 1616,588 731,0 1187,-247 456,-247 703,-791 l -569,-168 q -187,375 -517,546 -329,172 -820,172 -763,0 -1166,-461 -403,-461 -403,-1298 0,-834 428,-1317 428,-483 1185,-483 431,0 804,131 374,131 605,356 v 794 H 2634 v 500 H 4500 V 684 Q 4150,328 3642,132 3134,-63 2541,-63 1850,-63 1350,212 850,488 586,1005 322,1522 322,2222 Z"
         transform="scale(0.015625)" />
      <path
         id="LiberationSans-61"
         d="m 1294,-63 q -510,0 -766,269 -256,269 -256,738 0,525 345,806 346,281 1114,300 l 760,13 v 184 q 0,412 -175,590 -175,179 -550,179 -378,0 -550,-129 -172,-128 -207,-409 l -587,53 q 144,913 1356,913 638,0 959,-293 322,-292 322,-845 V 850 q 0,-250 66,-377 66,-126 250,-126 81,0 184,22 V 19 q -212,-50 -434,-50 -312,0 -455,164 -142,164 -161,514 h -18 Q 2275,259 1989,98 1703,-63 1294,-63 Z m 128,422 q 309,0 550,141 241,141 380,386 139,245 139,505 v 278 l -616,-13 q -397,-6 -602,-81 Q 1069,1500 959,1344 850,1188 850,934 850,659 998,509 1147,359 1422,359 Z"
         transform="scale(0.015625)" />
      <path
         id="LiberationSans-75"
         d="M 981,3381 V 1238 q 0,-335 66,-520 66,-184 209,-265 144,-81 422,-81 406,0 640,278 235,278 235,772 v 1959 h 563 V 722 q 0,-591 18,-722 h -531 q -3,16 -6,84 -3,69 -8,158 -5,89 -11,336 h -9 Q 2375,228 2120,82 1866,-63 1488,-63 931,-63 673,214 416,491 416,1128 v 2253 z"
         transform="scale(0.015625)" />
      <path
         id="LiberationSans-73"
         d="M 2969,934 Q 2969,456 2608,196 2247,-63 1597,-63 966,-63 623,145 281,353 178,794 l 497,97 q 72,-272 297,-399 225,-126 625,-126 428,0 626,131 199,131 199,394 0,200 -138,325 -137,125 -443,206 l -403,106 q -485,125 -690,245 -204,121 -320,293 -115,172 -115,422 0,462 329,704 330,242 961,242 560,0 889,-197 330,-196 417,-631 l -506,-62 q -47,225 -252,345 -204,120 -548,120 -381,0 -563,-116 -181,-115 -181,-349 0,-144 75,-238 75,-93 222,-159 147,-66 619,-181 447,-113 644,-208 197,-95 311,-211 114,-116 176,-268 63,-151 63,-345 z"
         transform="scale(0.015625)" />
      <path
         id="LiberationSans-69"
         d="m 428,4100 v 538 H 991 V 4100 Z M 428,0 V 3381 H 991 V 0 Z"
         transform="scale(0.015625)" />
      <path
         id="LiberationSans-6e"
         d="m 2578,0 v 2144 q 0,334 -66,518 -65,185 -209,266 -144,81 -422,81 -406,0 -641,-278 -234,-278 -234,-772 V 0 H 444 v 2659 q 0,591 -19,722 h 531 q 3,-15 6,-84 4,-69 8,-158 5,-89 11,-336 h 10 q 193,350 448,495 255,146 633,146 556,0 814,-277 258,-276 258,-914 V 0 Z"
         transform="scale(0.015625)" />
      <path
         id="LiberationSans-20"
         transform="scale(0.015625)"
         d="" />
      <path
         id="LiberationSans-74"
         d="M 1731,25 Q 1453,-50 1163,-50 488,-50 488,716 V 2972 H 97 v 409 h 412 l 166,757 h 375 v -757 h 625 V 2972 H 1050 V 838 q 0,-244 79,-343 80,-98 277,-98 113,0 325,44 z"
         transform="scale(0.015625)" />
      <path
         id="LiberationSans-72"
         d="m 444,0 v 2594 q 0,356 -19,787 h 531 q 25,-575 25,-690 h 13 q 134,434 309,593 175,160 494,160 112,0 228,-31 v -516 q -112,31 -300,31 -350,0 -535,-302 -184,-301 -184,-863 V 0 Z"
         transform="scale(0.015625)" />
      <path
         id="LiberationSans-66"
         d="M 1128,2972 V 0 H 566 V 2972 H 91 v 409 h 475 v 382 q 0,462 203,665 203,203 622,203 234,0 397,-37 v -428 q -141,25 -250,25 -216,0 -313,-110 -97,-109 -97,-397 v -303 h 660 v -409 z"
         transform="scale(0.015625)" />
      <path
         id="LiberationSans-6f"
         d="M 3291,1694 Q 3291,806 2900,371 2509,-63 1766,-63 1025,-63 647,389 269,841 269,1694 q 0,1750 1515,1750 775,0 1141,-427 366,-426 366,-1323 z m -591,0 q 0,700 -208,1017 -208,317 -698,317 -494,0 -715,-324 -220,-323 -220,-1010 0,-669 217,-1005 218,-336 683,-336 507,0 724,325 217,325 217,1016 z"
         transform="scale(0.015625)" />
      <path
         id="LiberationSans-6d"
         d="m 2400,0 v 2144 q 0,490 -135,677 -134,188 -484,188 -359,0 -569,-275 -209,-275 -209,-775 V 0 H 444 v 2659 q 0,591 -19,722 h 531 q 3,-15 6,-84 4,-69 8,-158 5,-89 11,-336 h 10 q 181,360 415,500 235,141 572,141 385,0 608,-153 223,-153 311,-488 h 9 q 175,341 423,491 249,150 602,150 513,0 745,-278 233,-278 233,-913 V 0 h -556 v 2144 q 0,490 -135,677 -134,188 -484,188 -368,0 -573,-273 -205,-273 -205,-777 V 0 Z"
         transform="scale(0.015625)" />
      <path
         id="LiberationSans-65"
         d="m 863,1572 q 0,-581 240,-897 241,-316 703,-316 366,0 586,147 221,147 299,372 L 3184,738 Q 2881,-63 1806,-63 1056,-63 664,384 272,831 272,1713 q 0,837 392,1284 392,447 1120,447 1491,0 1491,-1797 v -75 z m 1831,431 q -47,535 -272,780 -225,245 -647,245 -409,0 -648,-274 -239,-273 -258,-751 z"
         transform="scale(0.015625)" />
      <path
         id="LiberationSans-64"
         d="M 2566,544 Q 2409,219 2151,78 1894,-63 1513,-63 872,-63 570,368 269,800 269,1675 q 0,1769 1244,1769 384,0 640,-141 256,-140 413,-447 h 6 l -6,378 v 1404 h 562 V 697 q 0,-528 19,-697 h -538 q -9,50 -20,231 -11,182 -11,313 z M 859,1694 q 0,-710 187,-1016 188,-306 610,-306 478,0 694,331 216,331 216,1028 0,672 -216,984 -216,313 -687,313 -425,0 -615,-314 Q 859,2400 859,1694 Z"
         transform="scale(0.015625)" />
      <path
         id="LiberationSans-63"
         d="m 859,1706 q 0,-675 212,-1000 213,-325 642,-325 300,0 501,162 202,163 249,501 l 568,-38 Q 2966,519 2616,228 2266,-63 1728,-63 1019,-63 645,385 272,834 272,1694 q 0,853 375,1301 375,449 1075,449 519,0 861,-269 342,-269 430,-741 l -579,-43 q -43,281 -222,446 -178,166 -506,166 -447,0 -647,-297 Q 859,2409 859,1706 Z"
         transform="scale(0.015625)" />
      <path
         id="LiberationSans-6c"
         d="M 431,0 V 4638 H 994 V 0 Z"
         transform="scale(0.015625)" />
    </defs>
    <defs
       id="defs175">
      <path
         id="DejaVuSans-38"
         d="m 2034,2216 q -450,0 -708,-241 -257,-241 -257,-662 0,-422 257,-663 258,-241 708,-241 450,0 709,242 260,243 260,662 0,421 -258,662 -257,241 -711,241 z m -631,268 q -406,100 -633,378 -226,279 -226,679 0,559 398,884 399,325 1092,325 697,0 1094,-325 397,-325 397,-884 0,-400 -227,-679 -226,-278 -629,-378 456,-106 710,-416 255,-309 255,-755 Q 3634,634 3220,271 2806,-91 2034,-91 1263,-91 848,271 434,634 434,1313 q 0,446 256,755 257,310 713,416 z m -231,997 q 0,-362 226,-565 227,-203 636,-203 407,0 636,203 230,203 230,565 0,363 -230,566 -229,203 -636,203 -409,0 -636,-203 -226,-203 -226,-566 z"
         transform="scale(0.015625)" />
    </defs>
    <defs
       id="defs110">
      <path
         id="DejaVuSans-31"
         d="M 794,531 H 1825 V 4091 L 703,3866 v 575 l 1116,225 h 631 V 531 H 3481 V 0 H 794 Z"
         transform="scale(0.015625)" />
    </defs>
    <defs
       id="defs127">
      <path
         id="DejaVuSans-32"
         d="M 1228,531 H 3431 V 0 H 469 v 531 q 359,372 979,998 621,627 780,809 303,340 423,576 121,236 121,464 0,372 -261,606 -261,235 -680,235 -297,0 -627,-103 -329,-103 -704,-313 v 638 q 381,153 712,231 332,78 607,78 725,0 1156,-363 431,-362 431,-968 0,-288 -108,-546 -107,-257 -392,-607 -78,-91 -497,-524 Q 1991,1309 1228,531 Z"
         transform="scale(0.015625)" />
      <path
         id="LiberationSans-38"
         d="M 3281,1228 Q 3281,619 2893,278 2506,-63 1781,-63 1075,-63 676,271 278,606 278,1222 q 0,431 247,725 247,294 631,356 v 13 q -359,84 -567,365 -208,282 -208,660 0,503 376,815 377,313 1012,313 650,0 1026,-307 377,-306 377,-828 0,-378 -210,-659 -209,-281 -571,-353 v -13 q 422,-68 656,-357 234,-289 234,-724 z m -693,2075 q 0,747 -819,747 -397,0 -605,-188 -208,-187 -208,-559 0,-378 214,-577 214,-198 605,-198 397,0 605,183 208,183 208,592 z m 109,-2022 q 0,410 -244,617 -244,208 -684,208 -428,0 -669,-224 -241,-223 -241,-613 0,-910 929,-910 459,0 684,220 225,221 225,702 z"
         transform="scale(0.015625)" />
    </defs>
    <defs
       id="defs143">
      <path
         id="DejaVuSans-33"
         d="m 2597,2516 q 453,-97 707,-404 255,-306 255,-756 0,-690 -475,-1069 -475,-378 -1350,-378 -293,0 -604,58 -311,58 -642,174 v 609 q 262,-153 574,-231 313,-78 654,-78 593,0 904,234 311,234 311,681 0,413 -289,645 -289,233 -804,233 h -544 v 519 h 569 q 465,0 712,186 247,186 247,536 0,359 -255,551 -254,193 -729,193 -260,0 -557,-57 -297,-56 -653,-174 v 562 q 360,100 674,150 314,50 592,50 719,0 1137,-327 419,-326 419,-882 0,-388 -222,-655 -222,-267 -631,-370 z"
         transform="scale(0.015625)" />
      <path
         id="DejaVuSans-35"
         d="M 691,4666 H 3169 V 4134 H 1269 V 2991 q 137,47 274,70 138,23 276,23 781,0 1237,-428 457,-428 457,-1159 Q 3513,744 3044,326 2575,-91 1722,-91 1428,-91 1123,-41 819,9 494,109 v 635 q 281,-153 581,-228 300,-75 634,-75 541,0 856,284 316,284 316,772 0,487 -316,771 -315,285 -856,285 -253,0 -505,-56 -251,-56 -513,-175 z"
         transform="scale(0.015625)" />
    </defs>
    <defs
       id="defs39">
      <path
         id="DejaVuSans-27e8"
         d="m 572,2006 881,2850 h 531 L 1103,2006 1984,-844 h -531 z"
         transform="scale(0.015625)" />
      <path
         id="DejaVuSans-Oblique-66"
         d="m 3059,4863 -90,-479 h -550 q -313,0 -455,-123 -142,-123 -211,-452 l -62,-309 h 947 l -85,-447 H 1606 L 1013,0 H 434 l 597,3053 H 481 l 82,447 h 550 l 46,244 q 119,619 417,869 299,250 940,250 z"
         transform="scale(0.015625)" />
      <path
         id="DejaVuSans-27e9"
         d="M 1925,2006 1044,-844 H 513 l 881,2850 -881,2850 h 531 z"
         transform="scale(0.015625)" />
      <path
         id="DejaVuSans-Oblique-3bb"
         d="M 2350,4316 3125,0 H 2516 L 2038,2588 328,0 h -609 l 2184,3356 -109,619 q -69,394 -403,394 h -300 l 93,494 366,-7 q 703,-9 800,-540 z"
         transform="scale(0.015625)" />
      <path
         id="DejaVuSans-28"
         d="m 1984,4856 q -418,-718 -622,-1422 -203,-703 -203,-1425 0,-721 205,-1429 205,-708 620,-1424 h -500 q -468,735 -701,1444 -233,709 -233,1409 0,697 231,1403 232,707 703,1444 z"
         transform="scale(0.015625)" />
      <path
         id="DejaVuSans-Oblique-78"
         d="M 3841,3500 2234,1784 3219,0 H 2559 L 1819,1388 531,0 H -166 L 1556,1844 641,3500 h 659 l 672,-1266 1172,1266 z"
         transform="scale(0.015625)" />
      <path
         id="DejaVuSans-29"
         d="m 513,4856 h 500 q 468,-737 701,-1444 233,-706 233,-1403 0,-700 -233,-1409 -233,-709 -701,-1444 H 513 q 415,716 620,1424 205,708 205,1429 0,722 -205,1425 -205,704 -620,1422 z"
         transform="scale(0.015625)" />
    </defs>
    <defs
       id="defs15">
      <path
         id="LiberationSans-78"
         d="M 2503,0 1594,1388 678,0 H 72 L 1275,1738 128,3381 h 622 l 844,-1315 837,1315 h 628 L 1913,1744 3131,0 Z"
         transform="scale(0.015625)" />
    </defs>
    <defs
       id="defs94">
      <path
         id="DejaVuSans-3d"
         d="M 678,2906 H 4684 V 2381 H 678 Z m 0,-1275 H 4684 V 1100 H 678 Z"
         transform="scale(0.015625)" />
      <path
         id="DejaVuSans-30"
         d="m 2034,4250 q -487,0 -733,-480 -245,-479 -245,-1442 0,-959 245,-1439 246,-480 733,-480 491,0 736,480 246,480 246,1439 0,963 -246,1442 -245,480 -736,480 z m 0,500 q 785,0 1199,-621 414,-620 414,-1801 0,-1178 -414,-1799 -414,-620 -1199,-620 -784,0 -1198,620 -414,621 -414,1799 0,1181 414,1801 414,621 1198,621 z"
         transform="scale(0.015625)" />
      <path
         id="DejaVuSans-2e"
         d="m 684,794 h 660 V 0 H 684 Z"
         transform="scale(0.015625)" />
      <path
         id="LiberationSans-2c"
         d="M 1203,684 V 159 q 0,-331 -60,-553 -59,-222 -184,-425 H 575 Q 869,-394 869,0 H 594 v 684 z"
         transform="scale(0.015625)" />
      <path
         id="LiberationSans-3d"
         d="m 313,2675 v 463 h 3109 v -463 z m 0,-1600 v 463 h 3109 v -463 z"
         transform="scale(0.015625)" />
      <path
         id="LiberationSans-36"
         d="M 3278,1441 Q 3278,744 2900,340 2522,-63 1856,-63 1113,-63 719,490 325,1044 325,2100 q 0,1144 409,1756 410,613 1166,613 997,0 1256,-897 l -537,-97 q -166,538 -725,538 -481,0 -746,-449 -264,-448 -264,-1298 154,284 432,432 278,149 637,149 610,0 967,-382 358,-381 358,-1024 z m -572,-25 q 0,478 -234,737 -234,260 -653,260 -394,0 -636,-230 -242,-230 -242,-633 0,-509 251,-834 252,-325 646,-325 406,0 637,273 231,274 231,752 z"
         transform="scale(0.015625)" />
    </defs>
    <defs
       id="defs8">
      <path
         id="LiberationSans-31"
         d="M 488,0 V 478 H 1609 V 3866 L 616,3156 v 532 l 1040,715 h 519 V 478 H 3247 V 0 Z"
         transform="scale(0.015625)" />
    </defs>
    <defs
       id="defs10">
      <path
         id="LiberationSans-30"
         d="M 3309,2203 Q 3309,1100 2920,518 2531,-63 1772,-63 1013,-63 631,515 250,1094 250,2203 q 0,1135 370,1700 371,566 1171,566 778,0 1148,-572 370,-572 370,-1694 z m -571,0 q 0,953 -221,1381 -220,429 -726,429 -519,0 -746,-422 -226,-422 -226,-1388 0,-937 229,-1372 230,-434 730,-434 497,0 728,443 232,444 232,1363 z"
         transform="scale(0.015625)" />
    </defs>
    <defs
       id="defs3">
      <path
         id="LiberationSans-2212"
         d="m 316,1900 v 456 h 3109 v -456 z"
         transform="scale(0.015625)" />
      <path
         id="LiberationSans-34"
         d="M 2753,997 V 0 H 2222 V 997 H 147 v 437 l 2016,2969 h 590 V 1441 h 619 V 997 Z m -531,2772 q -6,-19 -88,-166 -81,-147 -121,-206 L 884,1734 716,1503 666,1441 h 1556 z"
         transform="scale(0.015625)" />
    </defs>
    <defs
       id="defs20">
      <path
         id="LiberationSans-35"
         d="M 3291,1434 Q 3291,738 2877,337 2463,-63 1728,-63 1113,-63 734,206 356,475 256,984 l 569,66 q 178,-653 916,-653 453,0 709,273 256,274 256,752 0,416 -258,672 -257,256 -695,256 -228,0 -425,-72 -197,-72 -394,-244 H 384 L 531,4403 H 3034 V 3925 H 1044 L 959,2528 q 366,281 910,281 650,0 1036,-381 386,-381 386,-994 z"
         transform="scale(0.015625)" />
    </defs>
    <defs
       id="defs6">
      <path
         id="LiberationSans-32"
         d="m 322,0 v 397 q 159,366 389,645 230,280 483,506 253,227 501,421 249,194 449,387 200,194 323,406 124,213 124,482 0,362 -213,562 -212,200 -590,200 -360,0 -593,-195 -232,-195 -273,-548 l -575,53 q 62,528 448,840 386,313 993,313 665,0 1023,-314 358,-314 358,-892 0,-257 -118,-510 Q 2934,2500 2703,2247 2472,1994 1819,1463 1459,1169 1246,933 1034,697 941,478 H 3238 V 0 Z"
         transform="scale(0.015625)" />
    </defs>
    <defs
       id="defs16">
      <path
         id="LiberationSans-2e"
         d="m 584,0 v 684 h 610 V 0 Z"
         transform="scale(0.015625)" />
    </defs>
    <defs
       id="defs4">
      <path
         id="LiberationSans-33"
         d="M 3278,1216 Q 3278,606 2890,271 2503,-63 1784,-63 1116,-63 717,239 319,541 244,1131 l 581,53 q 113,-781 959,-781 425,0 667,209 243,210 243,622 0,360 -277,561 -276,202 -798,202 h -319 v 487 h 306 q 463,0 717,202 255,202 255,558 0,353 -208,557 -207,205 -617,205 -372,0 -602,-191 -229,-190 -267,-537 l -565,44 q 62,541 448,844 386,303 992,303 663,0 1030,-308 367,-308 367,-858 0,-422 -236,-686 -236,-264 -686,-358 v -12 q 494,-53 769,-331 275,-278 275,-700 z"
         transform="scale(0.015625)" />
    </defs>
    <clipPath
       id="pcb2a6adda1-9">
      <rect
         x="50.537998"
         y="25.440001"
         width="691.87201"
         height="368.10001"
         id="rect191-4" />
    </clipPath>
    <clipPath
       id="clipPath1">
      <rect
         x="50.537998"
         y="25.440001"
         width="691.87201"
         height="368.10001"
         id="rect1" />
    </clipPath>
    <clipPath
       id="clipPath2">
      <rect
         x="50.537998"
         y="25.440001"
         width="691.87201"
         height="368.10001"
         id="rect2" />
    </clipPath>
    <clipPath
       id="clipPath3">
      <rect
         x="50.537998"
         y="25.440001"
         width="691.87201"
         height="368.10001"
         id="rect3" />
    </clipPath>
    <clipPath
       id="clipPath4">
      <rect
         x="50.537998"
         y="25.440001"
         width="691.87201"
         height="368.10001"
         id="rect4" />
    </clipPath>
    <clipPath
       id="clipPath5">
      <rect
         x="50.537998"
         y="25.440001"
         width="691.87201"
         height="368.10001"
         id="rect5" />
    </clipPath>
    <clipPath
       id="clipPath6">
      <rect
         x="50.537998"
         y="25.440001"
         width="691.87201"
         height="368.10001"
         id="rect6" />
    </clipPath>
  </defs>
  <defs
     id="defs191">
    <clipPath
       id="pcb2a6adda1">
      <rect
         x="50.537998"
         y="25.440001"
         width="691.87201"
         height="368.10001"
         id="rect191" />
    </clipPath>
  </defs>
  <g
     inkscape:groupmode="layer"
     id="layer1"
     inkscape:label="legend"
     style="display:inline"
     transform="translate(0.02706406,-165.41917)">
    <g
       id="g295"
       transform="matrix(0.70452512,0,0,0.70452512,-63.710677,208.29805)">
      <g
         id="g296"
         transform="translate(-455.4127,-120.16223)">
        <path
           d="m 778.81764,67.716035 h 20.5266 20.5266"
           style="fill:none;stroke:#481769;stroke-width:5.74745;stroke-linecap:round;stroke-linejoin:round"
           id="path94-1" />
        <use
           xlink:href="#DejaVuSans-Oblique-3bb"
           transform="matrix(0.20526601,0,0,-0.20526601,836.29212,74.897144)"
           id="use94-5"
           style="fill:#262626;stroke-linecap:butt;stroke-linejoin:round" />
        <use
           xlink:href="#DejaVuSans-3d"
           transform="matrix(0.20526601,0,0,-0.20526601,852.43876,74.897144)"
           id="use95-2"
           style="fill:#262626;stroke-linecap:butt;stroke-linejoin:round" />
        <use
           xlink:href="#DejaVuSans-30"
           transform="matrix(0.20526601,0,0,-0.20526601,873.63699,74.897144)"
           id="use96-7"
           style="fill:#262626;stroke-linecap:butt;stroke-linejoin:round" />
        <use
           xlink:href="#DejaVuSans-2e"
           transform="matrix(0.20526601,0,0,-0.20526601,886.69663,74.897144)"
           id="use97-6"
           style="fill:#262626;stroke-linecap:butt;stroke-linejoin:round" />
        <use
           xlink:href="#DejaVuSans-30"
           transform="matrix(0.20526601,0,0,-0.20526601,893.22142,74.897144)"
           id="use98-1"
           style="fill:#262626;stroke-linecap:butt;stroke-linejoin:round" />
        <use
           xlink:href="#DejaVuSans-30"
           transform="matrix(0.20526601,0,0,-0.20526601,906.28106,74.897144)"
           id="use99-4"
           style="fill:#262626;stroke-linecap:butt;stroke-linejoin:round" />
        <use
           xlink:href="#LiberationSans-2c"
           transform="matrix(0.20526601,0,0,-0.20526601,919.3407,74.897144)"
           id="use100-2"
           style="fill:#262626;stroke-linecap:butt;stroke-linejoin:round" />
        <use
           xlink:href="#LiberationSans-6d"
           transform="matrix(0.20526601,0,0,-0.20526601,930.74651,74.897144)"
           id="use102-3"
           style="fill:#262626;stroke-linecap:butt;stroke-linejoin:round" />
        <use
           xlink:href="#LiberationSans-69"
           transform="matrix(0.20526601,0,0,-0.20526601,947.84537,74.897144)"
           id="use103-2"
           style="fill:#262626;stroke-linecap:butt;stroke-linejoin:round" />
        <use
           xlink:href="#LiberationSans-6e"
           transform="matrix(0.20526601,0,0,-0.20526601,952.40577,74.897144)"
           id="use104-2"
           style="fill:#262626;stroke-linecap:butt;stroke-linejoin:round" />
        <use
           xlink:href="#LiberationSans-69"
           transform="matrix(0.20526601,0,0,-0.20526601,963.82164,74.897144)"
           id="use105-1"
           style="fill:#262626;stroke-linecap:butt;stroke-linejoin:round" />
        <use
           xlink:href="#LiberationSans-6d"
           transform="matrix(0.20526601,0,0,-0.20526601,968.38203,74.897144)"
           id="use106-6"
           style="fill:#262626;stroke-linecap:butt;stroke-linejoin:round" />
        <use
           xlink:href="#LiberationSans-61"
           transform="matrix(0.20526601,0,0,-0.20526601,985.4809,74.897144)"
           id="use107-8"
           style="fill:#262626;stroke-linecap:butt;stroke-linejoin:round" />
        <use
           xlink:href="#LiberationSans-3d"
           transform="matrix(0.20526601,0,0,-0.20526601,996.89677,74.897144)"
           id="use108-5"
           style="fill:#262626;stroke-linecap:butt;stroke-linejoin:round" />
        <use
           xlink:href="#LiberationSans-31"
           transform="matrix(0.20526601,0,0,-0.20526601,1008.8839,74.897144)"
           id="use109-7"
           style="fill:#262626;stroke-linecap:butt;stroke-linejoin:round" />
        <use
           xlink:href="#LiberationSans-36"
           transform="matrix(0.20526601,0,0,-0.20526601,1020.3,74.897144)"
           id="use110-6"
           style="fill:#262626;stroke-linecap:butt;stroke-linejoin:round" />
      </g>
      <g
         id="g297"
         transform="translate(-456.13113,-147.63754)">
        <path
           d="m 778.81764,126.51192 h 20.5266 20.5266"
           style="fill:#0000ff;stroke:#ff5555;stroke-width:4.31059;stroke-linecap:round;stroke-linejoin:round"
           id="path127-8" />
        <use
           xlink:href="#DejaVuSans-Oblique-3bb"
           transform="matrix(0.20526601,0,0,-0.20526601,836.29212,133.69303)"
           id="use128-7"
           style="fill:#262626;stroke-linecap:butt;stroke-linejoin:round" />
        <use
           xlink:href="#DejaVuSans-3d"
           transform="matrix(0.20526601,0,0,-0.20526601,852.43876,133.69303)"
           id="use129-4"
           style="fill:#262626;stroke-linecap:butt;stroke-linejoin:round" />
        <use
           xlink:href="#DejaVuSans-30"
           transform="matrix(0.20526601,0,0,-0.20526601,873.63699,133.69303)"
           id="use130-2"
           style="fill:#262626;stroke-linecap:butt;stroke-linejoin:round" />
        <use
           xlink:href="#DejaVuSans-2e"
           transform="matrix(0.20526601,0,0,-0.20526601,886.69663,133.69303)"
           id="use131-7"
           style="fill:#262626;stroke-linecap:butt;stroke-linejoin:round" />
        <use
           xlink:href="#DejaVuSans-32"
           transform="matrix(0.20526601,0,0,-0.20526601,892.09246,133.69303)"
           id="use132-7"
           style="fill:#262626;stroke-linecap:butt;stroke-linejoin:round" />
        <use
           xlink:href="#DejaVuSans-30"
           transform="matrix(0.20526601,0,0,-0.20526601,905.1521,133.69303)"
           id="use133-9"
           style="fill:#262626;stroke-linecap:butt;stroke-linejoin:round" />
        <use
           xlink:href="#LiberationSans-2c"
           transform="matrix(0.20526601,0,0,-0.20526601,918.21174,133.69303)"
           id="use134-3"
           style="fill:#262626;stroke-linecap:butt;stroke-linejoin:round" />
        <use
           xlink:href="#LiberationSans-6d"
           transform="matrix(0.20526601,0,0,-0.20526601,929.61755,133.69303)"
           id="use136-1"
           style="fill:#262626;stroke-linecap:butt;stroke-linejoin:round" />
        <use
           xlink:href="#LiberationSans-69"
           transform="matrix(0.20526601,0,0,-0.20526601,946.71641,133.69303)"
           id="use137-9"
           style="fill:#262626;stroke-linecap:butt;stroke-linejoin:round" />
        <use
           xlink:href="#LiberationSans-6e"
           transform="matrix(0.20526601,0,0,-0.20526601,951.27681,133.69303)"
           id="use138-8"
           style="fill:#262626;stroke-linecap:butt;stroke-linejoin:round" />
        <use
           xlink:href="#LiberationSans-69"
           transform="matrix(0.20526601,0,0,-0.20526601,962.69267,133.69303)"
           id="use139-6"
           style="fill:#262626;stroke-linecap:butt;stroke-linejoin:round" />
        <use
           xlink:href="#LiberationSans-6d"
           transform="matrix(0.20526601,0,0,-0.20526601,967.25307,133.69303)"
           id="use140-5"
           style="fill:#262626;stroke-linecap:butt;stroke-linejoin:round" />
        <use
           xlink:href="#LiberationSans-61"
           transform="matrix(0.20526601,0,0,-0.20526601,984.35193,133.69303)"
           id="use141-0"
           style="fill:#262626;stroke-linecap:butt;stroke-linejoin:round" />
        <use
           xlink:href="#LiberationSans-3d"
           transform="matrix(0.20526601,0,0,-0.20526601,995.7678,133.69303)"
           id="use142-2"
           style="fill:#262626;stroke-linecap:butt;stroke-linejoin:round" />
        <use
           xlink:href="#LiberationSans-38"
           transform="matrix(0.20526601,0,0,-0.20526601,1007.7549,133.69303)"
           id="use143-8"
           style="fill:#262626;stroke-linecap:butt;stroke-linejoin:round" />
      </g>
      <g
         id="g298"
         transform="translate(-455.41272,-204.47004)">
        <path
           d="m 778.09923,212.41113 h 20.5266 20.52661"
           style="fill:none;stroke:#cae11f;stroke-width:4.31059;stroke-linecap:round;stroke-linejoin:round"
           id="path175-2" />
        <use
           xlink:href="#DejaVuSans-Oblique-3bb"
           transform="matrix(0.20526601,0,0,-0.20526601,835.57372,219.59224)"
           id="use176-9"
           style="fill:#262626;stroke-linecap:butt;stroke-linejoin:round" />
        <use
           xlink:href="#DejaVuSans-3d"
           transform="matrix(0.20526601,0,0,-0.20526601,851.72035,219.59224)"
           id="use177-1"
           style="fill:#262626;stroke-linecap:butt;stroke-linejoin:round" />
        <use
           xlink:href="#DejaVuSans-30"
           transform="matrix(0.20526601,0,0,-0.20526601,872.91858,219.59224)"
           id="use178-3"
           style="fill:#262626;stroke-linecap:butt;stroke-linejoin:round" />
        <use
           xlink:href="#DejaVuSans-2e"
           transform="matrix(0.20526601,0,0,-0.20526601,885.97822,219.59224)"
           id="use179-5"
           style="fill:#262626;stroke-linecap:butt;stroke-linejoin:round" />
        <use
           xlink:href="#DejaVuSans-38"
           transform="matrix(0.20526601,0,0,-0.20526601,891.96419,219.59224)"
           id="use180-9"
           style="fill:#262626;stroke-linecap:butt;stroke-linejoin:round" />
        <use
           xlink:href="#DejaVuSans-30"
           transform="matrix(0.20526601,0,0,-0.20526601,905.02383,219.59224)"
           id="use181-8"
           style="fill:#262626;stroke-linecap:butt;stroke-linejoin:round" />
        <use
           xlink:href="#LiberationSans-2c"
           transform="matrix(0.20526601,0,0,-0.20526601,918.08347,219.59224)"
           id="use182-4"
           style="fill:#262626;stroke-linecap:butt;stroke-linejoin:round" />
        <use
           xlink:href="#LiberationSans-6d"
           transform="matrix(0.20526601,0,0,-0.20526601,929.48928,219.59224)"
           id="use184-0"
           style="fill:#262626;stroke-linecap:butt;stroke-linejoin:round" />
        <use
           xlink:href="#LiberationSans-69"
           transform="matrix(0.20526601,0,0,-0.20526601,946.58814,219.59224)"
           id="use185-7"
           style="fill:#262626;stroke-linecap:butt;stroke-linejoin:round" />
        <use
           xlink:href="#LiberationSans-6e"
           transform="matrix(0.20526601,0,0,-0.20526601,951.14854,219.59224)"
           id="use186-6"
           style="fill:#262626;stroke-linecap:butt;stroke-linejoin:round" />
        <use
           xlink:href="#LiberationSans-69"
           transform="matrix(0.20526601,0,0,-0.20526601,962.56441,219.59224)"
           id="use187-3"
           style="fill:#262626;stroke-linecap:butt;stroke-linejoin:round" />
        <use
           xlink:href="#LiberationSans-6d"
           transform="matrix(0.20526601,0,0,-0.20526601,967.1248,219.59224)"
           id="use188-6"
           style="fill:#262626;stroke-linecap:butt;stroke-linejoin:round" />
        <use
           xlink:href="#LiberationSans-61"
           transform="matrix(0.20526601,0,0,-0.20526601,984.22367,219.59224)"
           id="use189-1"
           style="fill:#262626;stroke-linecap:butt;stroke-linejoin:round" />
        <use
           xlink:href="#LiberationSans-3d"
           transform="matrix(0.20526601,0,0,-0.20526601,995.63954,219.59224)"
           id="use190-5"
           style="fill:#262626;stroke-linecap:butt;stroke-linejoin:round" />
        <use
           xlink:href="#LiberationSans-31"
           transform="matrix(0.20526601,0,0,-0.20526601,1007.6267,219.59224)"
           id="use191-4"
           style="fill:#262626;stroke-linecap:butt;stroke-linejoin:round" />
      </g>
    </g>
  </g>
  <g
     inkscape:groupmode="layer"
     id="layer2"
     inkscape:label="chart"
     transform="translate(0.02706406,-165.41917)">
    <path
       d="m 50.538,109.64681 0.86484,-2.72708 0.86484,-3.6178 1.15312,-6.049038 1.4414,-9.097784 5.18904,-34.75802 1.15312,-5.41494 0.86484,-2.990243 0.57656,-1.422445 0.57656,-0.937238 0.57656,-0.434897 0.28828,-0.02551 0.28828,0.103532 0.57656,0.594953 0.57656,1.109386 0.57656,1.615024 0.86484,3.336678 0.86484,4.366606 1.15312,7.252507 1.4414,10.95608 1.72968,15.071158 6.05388,54.738691 2.01796,15.54451 2.01796,13.85434 2.59452,16.11065 4.90076,28.58195 2.30624,12.54831 1.4414,6.9072 1.15312,4.66986 0.86484,2.85267 0.86484,2.19222 0.57656,1.05273 0.57656,0.70022 0.57656,0.32952 0.57656,-0.0554 0.57656,-0.45027 0.57656,-0.8502 0.57656,-1.25009 0.86484,-2.61166 0.86484,-3.45658 1.15312,-5.7996 1.4414,-8.81639 2.01796,-14.11839 2.59452,-18.09533 1.4414,-8.4839 1.15312,-5.38916 0.86484,-3.05482 0.86484,-2.12642 0.57656,-0.88135 0.57656,-0.44795 0.57656,-0.0186 0.57656,0.39964 0.57656,0.80008 0.57656,1.17614 0.86484,2.40094 1.15312,4.18633 1.4414,6.29302 2.8828,12.94739 1.15312,4.11347 0.86484,2.32423 0.57656,1.11366 0.57656,0.72781 0.57656,0.31683 0.57656,-0.11287 0.57656,-0.5547 0.57656,-1.00186 0.57656,-1.44758 0.86484,-2.98752 0.86484,-3.91618 1.15312,-6.51632 1.4414,-9.83269 2.01796,-15.70298 3.17108,-24.74761 1.4414,-9.6248 1.15312,-6.48655 1.15312,-5.24742 0.86484,-3.08088 0.86484,-2.34734 0.86484,-1.63672 0.57656,-0.71628 0.57656,-0.43486 0.57656,-0.17204 0.57656,0.0704 0.57656,0.29122 0.86484,0.80251 0.86484,1.17588 1.15312,2.03066 1.4414,3.09517 1.72968,4.31505 1.72968,4.91995 1.4414,4.69582 1.4414,5.47115 1.4414,6.52496 1.15312,6.1673 1.4414,9.08555 1.4414,10.73252 1.4414,12.36129 1.72968,16.69242 3.17108,33.3975 2.30624,23.22492 1.4414,12.50469 1.15312,8.32326 0.86484,5.07286 0.86484,3.96976 0.86484,2.80843 0.57656,1.21313 0.57656,0.68594 0.28828,0.14745 0.28828,0.0191 0.28828,-0.10713 0.57656,-0.58274 0.57656,-1.05286 0.57656,-1.49206 0.86484,-2.9799 1.15312,-5.12558 1.4414,-7.6845 3.45936,-19.20814 1.15312,-5.12935 0.86484,-3.05714 0.86484,-2.26425 0.57656,-1.03328 0.57656,-0.63711 0.57656,-0.23569 0.57656,0.16406 0.57656,0.55531 0.57656,0.93148 0.86484,2.05429 0.86484,2.7554 1.15312,4.55232 1.72968,8.00376 2.59452,12.09165 1.15312,4.45357 0.86484,2.69236 0.86484,2.02534 0.57656,0.94248 0.57656,0.59806 0.57656,0.24417 0.57656,-0.11366 0.57656,-0.47009 0.57656,-0.81995 0.57656,-1.15839 0.86484,-2.33634 0.86484,-2.99138 1.15312,-4.85742 1.4414,-7.13738 2.30624,-12.75661 3.45936,-19.04835 2.30624,-11.40128 3.17108,-14.35958 2.8828,-13.35483 2.30624,-11.78371 5.47732,-28.78753 1.15312,-4.62517 0.86484,-2.72062 0.86484,-1.93586 0.57656,-0.79554 0.57656,-0.36237 0.28828,-0.01 0.28828,0.10838 0.57656,0.58245 0.57656,1.08468 0.57656,1.59963 0.86484,3.3782 0.86484,4.54722 0.86484,5.67993 1.15312,9.2108 1.4414,13.77504 1.72968,18.92038 4.61248,51.9371 1.4414,13.28468 1.15312,8.75514 1.15312,6.86215 0.86484,3.84377 0.86484,2.72685 0.57656,1.21495 0.57656,0.75473 0.57656,0.32052 0.57656,-0.082 0.57656,-0.44758 0.57656,-0.77192 0.86484,-1.66684 1.15312,-2.9161 3.74764,-10.33026 0.86484,-1.65571 0.86484,-1.12794 0.57656,-0.42039 0.57656,-0.13653 0.57656,0.15673 0.57656,0.45358 0.57656,0.74827 0.86484,1.65677 0.86484,2.25408 1.15312,3.81012 1.4414,5.74202 5.18904,22.03058 1.15312,3.73196 1.15312,2.98515 0.86484,1.72525 0.86484,1.29248 0.86484,0.88589 0.86484,0.52056 0.86484,0.20811 0.86484,-0.0439 1.15312,-0.34096 1.72968,-0.82893 3.17108,-1.54836 2.30624,-1.12322 1.15312,-0.85116 0.86484,-0.9148 0.86484,-1.2543 0.86484,-1.69057 0.86484,-2.22238 0.86484,-2.84329 0.86484,-3.54164 1.15312,-5.91073 1.15312,-7.34247 1.15312,-8.77778 1.4414,-12.84961 1.72968,-17.65058 5.7656,-61.16601 1.15312,-9.36501 1.15312,-7.45489 0.86484,-4.16463 0.57656,-2.04845 0.57656,-1.4467 0.57656,-0.83647 0.28828,-0.18875 0.28828,-0.0363 0.28828,0.11505 0.57656,0.67795 0.57656,1.26012 0.57656,1.81827 0.86484,3.70548 0.86484,4.76333 1.15312,7.72791 1.4414,11.27662 5.18904,42.38695 1.4414,9.05704 1.15312,5.78771 0.86484,3.44862 0.86484,2.69708 0.86484,1.9884 0.86484,1.34778 0.57656,0.58588 0.57656,0.37101 0.86484,0.22651 0.86484,-0.0638 1.4414,-0.42214 1.4414,-0.35387 0.86484,0.0155 0.86484,0.28455 0.86484,0.61107 0.86484,0.97353 0.86484,1.3499 0.86484,1.71865 1.15312,2.81506 1.4414,4.19493 2.59452,8.49415 2.30624,7.23661 1.4414,3.87388 1.4414,3.23838 1.4414,2.65022 1.72968,2.67208 2.01796,3.09496 1.15312,2.12614 1.15312,2.61757 1.15312,3.26001 1.15312,4.00275 1.15312,4.77956 1.4414,6.9934 2.01796,11.1659 2.8828,16.10215 1.15312,5.40179 0.86484,3.30034 0.86484,2.48137 0.57656,1.12774 0.57656,0.66184 0.28828,0.14562 0.28828,0.0171 0.28828,-0.11478 0.57656,-0.63662 0.57656,-1.19456 0.57656,-1.76498 0.86484,-3.72741 0.86484,-5.01088 0.86484,-6.24706 1.15312,-10.1042 1.4414,-15.06095 1.72968,-20.61674 4.61248,-56.59538 1.4414,-14.68243 1.15312,-9.85082 1.15312,-7.94165 0.86484,-4.64336 0.86484,-3.51594 0.86484,-2.42231 0.57656,-1.03773 0.57656,-0.60518 0.57656,-0.20285 0.57656,0.16528 0.57656,0.49597 0.57656,0.78678 0.86484,1.63423 1.15312,2.80347 2.30624,6.52879 1.72968,4.62116 1.15312,2.58585 1.15312,2.07786 1.15312,1.55667 1.15312,1.08947 1.15312,0.73168 1.72968,0.75859 1.4414,0.68779 1.15312,0.81525 0.86484,0.85297 0.86484,1.10336 1.15312,1.89442 1.15312,2.37418 1.4414,3.5475 2.59452,7.23617 1.72968,4.5938 1.15312,2.58376 1.15312,2.01164 0.86484,1.06377 0.86484,0.65255 0.57656,0.20404 0.57656,0.0242 0.57656,-0.14607 0.86484,-0.50567 0.86484,-0.7876 1.4414,-1.68784 1.72968,-1.97997 0.86484,-0.66302 0.57656,-0.22717 0.57656,-0.008 0.57656,0.2484 0.57656,0.54101 0.57656,0.86604 0.57656,1.21952 0.86484,2.54278 0.86484,3.4484 0.86484,4.38206 1.15312,7.28271 1.15312,8.82736 1.4414,12.87923 2.01796,20.31609 3.17108,32.10286 1.4414,12.36195 1.15312,8.05326 0.86484,4.73583 0.86484,3.49165 0.57656,1.59674 0.57656,0.99425 0.28828,0.26871 0.28828,0.11604 0.28828,-0.0364 0.28828,-0.1881 0.57656,-0.82628 0.57656,-1.41365 0.57656,-1.97994 0.86484,-3.9703 0.86484,-5.06577 1.15312,-8.21353 1.4414,-12.06835 2.30624,-21.55386 2.8828,-26.60065 1.72968,-13.97729 1.4414,-10.01711 1.4414,-8.47047 1.4414,-7.05044 1.4414,-5.89036 1.72968,-6.01246 2.8828,-8.95826 3.74764,-11.90875 2.59452,-8.05406 1.4414,-3.77676 1.15312,-2.37738 0.86484,-1.30427 0.86484,-0.83416 0.57656,-0.27555 0.57656,-0.0427 0.57656,0.19309 0.57656,0.42745 0.57656,0.65607 0.86484,1.38922 0.86484,1.82661 1.15312,2.98474 2.01796,6.06146 1.72968,5.05541 1.15312,2.76085 0.86484,1.54785 0.57656,0.72492 0.57656,0.44918 0.57656,0.15259 0.57656,-0.15976 0.57656,-0.48238 0.57656,-0.80944 0.57656,-1.13485 0.86484,-2.2935 0.86484,-2.95371 1.15312,-4.81688 1.72968,-8.51881 2.8828,-14.47038 1.15312,-4.63413 0.86484,-2.65166 0.57656,-1.28798 0.57656,-0.85653 0.57656,-0.39004 0.28828,-0.0107 0.28828,0.11636 0.57656,0.6242 0.57656,1.15889 0.57656,1.70266 0.86484,3.57565 0.86484,4.77725 0.86484,5.91836 1.15312,9.49815 1.4414,14.00716 2.01796,22.18183 3.45936,38.46334 1.4414,13.87485 1.4414,11.64269 1.15312,7.4414 0.86484,4.42231 0.86484,3.42342 0.86484,2.44976 0.57656,1.11608 0.57656,0.72542 0.57656,0.35858 0.57656,0.0185 0.57656,-0.29258 0.57656,-0.57304 0.86484,-1.31651 0.86484,-1.77043 1.15312,-2.89128 1.72968,-5.0495 3.45936,-11.02946 2.59452,-8.78255 1.72968,-6.5662 1.4414,-6.24495 1.4414,-7.16013 1.4414,-8.18153 1.72968,-11.12235 2.30624,-16.44058 3.45936,-24.61977 1.4414,-8.71793 1.15312,-5.78767 0.86484,-3.50693 0.86484,-2.71942 0.86484,-1.89338 0.57656,-0.7969 0.57656,-0.42856 0.57656,-0.0702 0.57656,0.27213 0.57656,0.59277 0.57656,0.88617 0.86484,1.80708 1.15312,3.09532 4.03592,11.76705 0.86484,1.59409 0.57656,0.69823 0.57656,0.36322 0.57656,-0.003 0.57656,-0.39544 0.57656,-0.80715 0.57656,-1.23174 0.57656,-1.66233 0.86484,-3.29662 0.86484,-4.22803 1.15312,-6.96329 1.4414,-10.46475 2.01796,-16.67335 2.59452,-21.45117 1.4414,-10.19138 1.15312,-6.58798 0.86484,-3.82221 0.86484,-2.7555 0.57656,-1.21206 0.57656,-0.69898 0.28828,-0.15562 0.28828,-0.0264 0.28828,0.10226 0.57656,0.58645 0.57656,1.08509 0.57656,1.56593 0.86484,3.19848 0.86484,4.12915 1.15312,6.7474 1.4414,9.97859 2.30624,17.97576 3.45936,26.91325 2.01796,13.81291 1.72968,10.39853 2.01796,10.68013 2.59452,12.2815 4.61248,20.46655 2.01796,8.15243 1.4414,4.92716 1.15312,3.08299 0.86484,1.66085 0.57656,0.74499 0.57656,0.42529 0.57656,0.0827 0.57656,-0.2798 0.57656,-0.65845 0.57656,-1.04914 0.57656,-1.44727 0.86484,-2.92129 0.86484,-3.80722 1.15312,-6.37812 1.15312,-7.70001 1.4414,-11.08506 5.7656,-46.63887 1.15312,-6.95043 0.86484,-4.22422 0.86484,-3.295 0.86484,-2.32767 0.57656,-1.01128 0.57656,-0.58686 0.57656,-0.17707 0.57656,0.21144 0.57656,0.57229 0.57656,0.89956 0.86484,1.8764 1.15312,3.24549 3.74764,11.54849 0.86484,1.80135 0.57656,0.83669 0.57656,0.4989 0.57656,0.12721 0.57656,-0.27253 0.57656,-0.6941 0.57656,-1.13098 0.57656,-1.57644 0.86484,-3.20195 0.86484,-4.18444 1.15312,-7.00835 1.15312,-8.44267 1.72968,-14.70403 6.05388,-54.01065 1.4414,-9.872992 1.15312,-6.487067 1.15312,-5.179718 0.86484,-3.042077 0.86484,-2.358038 0.86484,-1.726284 0.86484,-1.158842 0.57656,-0.492593 0.57656,-0.294369 0.57656,-0.118196 0.86484,0.106613 0.86484,0.388907 0.86484,0.614979 1.15312,1.099505 1.4414,1.750524 1.4414,2.177188 1.15312,2.130427 1.15312,2.594325 1.15312,3.196564 1.15312,3.946463 1.15312,4.834141 1.15312,5.83027 1.15312,6.8876 1.4414,10.08836 1.72968,14.03698 2.30624,20.87809 2.8828,26.02677 1.4414,11.28375 1.15312,7.52948 0.86484,4.56342 0.86484,3.5147 0.57656,1.72062 0.57656,1.20352 0.57656,0.67732 0.28828,0.14035 0.28828,0.008 0.28828,-0.12263 0.57656,-0.63326 0.57656,-1.1375 0.57656,-1.62018 0.86484,-3.27249 0.86484,-4.17495 1.15312,-6.71531 1.72968,-11.69796 3.17108,-21.89622 1.4414,-8.18648 1.15312,-5.11949 0.86484,-2.86473 0.86484,-1.97454 0.57656,-0.81475 0.57656,-0.41861 0.57656,-0.0344 0.57656,0.33136 0.57656,0.67272 0.57656,0.98413 0.86484,1.98248 1.15312,3.3732 0.28828,0.93624 v 0"
       clip-path="url(#pcb2a6adda1)"
       style="fill:none;stroke:#481769;stroke-width:2.8;stroke-linecap:round"
       id="path46"
       transform="matrix(0.5902934,0,0,0.54736835,20.705695,171.18946)"
       inkscape:label="000" />
    <path
       d="m 50.538,94.248608 0.86484,-1.710144 1.15312,-2.800426 1.4414,-4.181257 2.30624,-7.552972 2.30624,-7.283623 1.15312,-3.033581 1.15312,-2.372699 0.86484,-1.245786 0.57656,-0.543156 0.57656,-0.296148 0.57656,-0.03719 0.57656,0.231158 0.57656,0.506293 0.57656,0.785561 0.86484,1.704532 0.86484,2.32986 0.86484,2.937048 1.15312,4.808301 1.15312,5.738139 1.4414,8.295605 1.72968,11.245187 2.59452,18.5004 6.05388,43.82651 2.59452,17.03828 2.30624,13.73377 2.01796,10.69862 1.72968,7.98756 1.4414,5.66538 1.15312,3.78764 1.15312,3.05135 0.86484,1.76735 0.86484,1.29567 0.86484,0.80714 0.57656,0.26136 0.57656,0.0384 0.57656,-0.18388 0.57656,-0.40379 0.57656,-0.61938 0.86484,-1.31898 0.86484,-1.75977 1.15312,-2.96217 1.4414,-4.51909 2.01796,-7.31943 3.45936,-12.76009 1.4414,-4.49059 1.15312,-2.96832 1.15312,-2.31588 0.86484,-1.27886 0.86484,-0.88089 0.86484,-0.49345 0.57656,-0.12523 0.86484,0.0915 0.86484,0.38537 0.86484,0.62286 1.4414,1.38557 2.59452,2.60045 0.86484,0.60813 0.86484,0.35932 0.86484,0.0488 0.57656,-0.16616 0.57656,-0.34027 0.86484,-0.85865 0.86484,-1.29681 0.86484,-1.7453 0.86484,-2.19047 1.15312,-3.58227 1.4414,-5.43032 1.72968,-7.61406 2.8828,-14.02984 2.59452,-12.22262 1.72968,-7.0557 1.4414,-4.88486 1.15312,-3.14927 1.15312,-2.42531 0.86484,-1.33047 0.86484,-0.90954 0.57656,-0.37408 0.57656,-0.19053 0.57656,-0.01 0.57656,0.16829 0.57656,0.34288 0.86484,0.83426 0.86484,1.20827 0.86484,1.57214 1.15312,2.64795 1.15312,3.26598 1.15312,3.87662 1.4414,5.70171 1.4414,6.6534 1.72968,9.2304 1.72968,10.53646 2.01796,13.75589 2.59452,19.33923 4.3242,32.51966 1.72968,11.47383 1.4414,8.27264 1.15312,5.58454 1.15312,4.55924 0.86484,2.71038 0.86484,2.09186 0.86484,1.47898 0.57656,0.65472 0.57656,0.40019 0.57656,0.15759 0.57656,-0.0706 0.57656,-0.28207 0.86484,-0.77806 0.86484,-1.14053 1.15312,-1.94971 2.01796,-4.03983 2.01796,-3.95 1.15312,-1.8625 1.15312,-1.40906 0.86484,-0.70441 0.86484,-0.37697 0.86484,-0.0417 0.86484,0.28741 0.86484,0.59718 0.86484,0.87529 1.15312,1.52482 1.72968,2.7912 2.8828,4.74098 1.15312,1.48013 0.86484,0.8253 0.86484,0.52827 0.86484,0.19288 0.57656,-0.0724 0.57656,-0.24072 0.86484,-0.68529 0.86484,-1.07899 0.86484,-1.46951 1.15312,-2.54557 1.15312,-3.17077 1.4414,-4.74209 1.72968,-6.63065 2.01796,-8.68302 3.17108,-14.81113 8.07184,-38.28584 2.30624,-9.7181 1.72968,-6.30751 1.15312,-3.5352 1.15312,-2.85849 0.86484,-1.62571 0.86484,-1.12584 0.57656,-0.44982 0.57656,-0.19462 0.57656,0.0716 0.57656,0.34723 0.57656,0.63046 0.57656,0.91924 0.86484,1.92706 0.86484,2.58508 0.86484,3.23154 1.15312,5.26955 1.15312,6.27782 1.4414,9.05596 2.01796,14.30768 5.18904,37.92942 1.72968,10.58623 1.4414,7.39714 1.15312,4.88415 1.15312,3.94788 1.15312,3.04425 0.86484,1.73367 0.86484,1.3117 0.86484,0.94423 0.86484,0.63852 0.86484,0.39949 1.15312,0.28036 3.45936,0.59818 1.15312,0.55946 0.86484,0.63662 1.15312,1.17795 1.15312,1.57073 1.15312,1.95168 1.4414,2.91142 2.01796,4.71441 4.90076,11.8152 1.72968,3.40478 1.4414,2.30555 1.15312,1.45948 1.15312,1.10544 1.15312,0.74981 0.86484,0.33052 0.86484,0.1331 0.86484,-0.0644 0.86484,-0.26418 0.86484,-0.4691 0.86484,-0.68261 0.86484,-0.90841 1.15312,-1.59048 1.15312,-2.06715 1.15312,-2.59758 1.15312,-3.18452 1.15312,-3.82493 1.15312,-4.5093 1.4414,-6.63915 1.4414,-7.75286 1.72968,-10.67148 2.01796,-13.97229 6.05388,-43.44176 1.4414,-8.41194 1.15312,-5.6323 1.15312,-4.49094 0.86484,-2.5503 0.86484,-1.81392 0.57656,-0.79202 0.57656,-0.45704 0.57656,-0.12457 0.57656,0.2023 0.57656,0.52057 0.57656,0.82737 0.86484,1.78461 0.86484,2.38434 1.15312,3.99178 1.4414,6.03107 2.01796,9.67337 4.03592,19.75593 1.72968,7.3386 1.4414,5.28277 1.4414,4.48613 1.4414,3.73822 1.4414,3.10396 1.72968,3.11046 2.30624,3.60616 2.8828,4.54184 2.01796,3.6092 2.01796,4.06762 2.59452,5.79043 4.3242,10.3392 4.3242,10.82237 2.59452,7.13601 2.30624,7.02707 2.8828,9.59339 3.17108,10.48608 1.4414,4.11211 1.15312,2.7106 0.86484,1.588 0.86484,1.13159 0.57656,0.46932 0.57656,0.22087 0.57656,-0.0433 0.57656,-0.3215 0.57656,-0.61153 0.57656,-0.91113 0.86484,-1.94307 0.86484,-2.64455 0.86484,-3.34364 1.15312,-5.51321 1.15312,-6.63991 1.4414,-9.68423 1.72968,-13.19304 3.74764,-31.03244 2.30624,-17.97978 1.72968,-11.70796 1.4414,-8.2034 1.15312,-5.42945 1.15312,-4.38912 0.86484,-2.61633 0.86484,-2.05874 0.86484,-1.53186 0.86484,-1.04441 0.86484,-0.60313 0.57656,-0.1819 0.86484,0.018 0.86484,0.3191 0.86484,0.56699 1.15312,1.0547 1.4414,1.64929 2.30624,3.02362 7.207,9.98044 2.8828,4.41187 7.49528,11.85654 1.72968,2.16045 1.72968,1.81439 2.30624,2.05281 2.01796,1.83492 1.4414,1.63471 1.15312,1.67185 1.15312,2.11924 1.15312,2.6711 1.15312,3.30913 1.15312,4.00693 1.15312,4.73113 1.4414,6.90988 1.72968,9.58695 2.30624,14.29945 3.74764,23.34829 1.4414,7.67878 1.15312,5.17962 1.15312,4.12783 0.86484,2.31815 0.86484,1.60054 0.57656,0.65289 0.57656,0.31515 0.57656,-0.0247 0.57656,-0.36348 0.57656,-0.6983 0.57656,-1.02621 0.86484,-2.13229 0.86484,-2.80433 1.15312,-4.68827 1.15312,-5.62883 1.4414,-8.08871 2.01796,-12.63111 5.7656,-36.943 2.01796,-11.31161 2.01796,-10.0579 2.01796,-8.83068 2.01796,-7.70952 1.72968,-5.79207 1.72968,-5.06556 1.4414,-3.65055 1.4414,-3.09504 1.15312,-2.04584 1.15312,-1.63934 1.15312,-1.21695 0.86484,-0.63206 0.86484,-0.39483 0.86484,-0.16661 0.86484,0.0465 0.86484,0.23802 1.15312,0.56646 1.4414,0.99052 3.45936,2.52132 1.15312,0.51077 0.86484,0.17452 0.86484,-0.0383 0.86484,-0.27264 0.86484,-0.51873 0.86484,-0.7656 1.15312,-1.38447 1.15312,-1.74444 1.72968,-3.07531 2.59452,-4.69562 1.15312,-1.67783 0.86484,-0.93323 0.86484,-0.57157 0.57656,-0.14578 0.57656,0.0643 0.57656,0.29117 0.57656,0.53258 0.57656,0.78622 0.86484,1.6752 0.86484,2.28763 0.86484,2.90595 1.15312,4.81797 1.15312,5.83455 1.4414,8.55197 1.72968,11.70129 3.45936,25.50981 2.30624,16.22411 1.72968,10.64996 1.4414,7.48828 1.15312,4.95054 1.15312,3.97115 0.86484,2.32622 0.86484,1.77282 0.86484,1.23373 0.57656,0.53329 0.57656,0.31079 0.57656,0.0969 0.57656,-0.10785 0.57656,-0.30293 0.86484,-0.79864 0.86484,-1.1823 0.86484,-1.53397 1.15312,-2.54128 1.15312,-3.05166 1.4414,-4.45532 1.72968,-6.18845 1.72968,-7.01977 2.01796,-9.13709 2.30624,-11.49731 4.03592,-21.56894 2.8828,-14.79822 1.72968,-7.84027 1.4414,-5.64122 1.4414,-4.68093 1.15312,-3.00256 1.15312,-2.33974 0.86484,-1.33894 0.86484,-1.01171 0.86484,-0.72233 0.86484,-0.48044 1.15312,-0.36192 3.74764,-0.78182 0.86484,-0.50039 0.86484,-0.75287 0.86484,-1.05522 0.86484,-1.39689 0.86484,-1.76572 1.15312,-2.94987 1.15312,-3.62189 1.4414,-5.38886 1.72968,-7.45812 5.18904,-23.34941 1.15312,-4.1235 1.15312,-3.33486 0.86484,-1.89749 0.86484,-1.32757 0.57656,-0.55126 0.57656,-0.27601 0.57656,0.003 0.57656,0.28409 0.57656,0.56371 0.57656,0.83968 0.86484,1.76314 0.86484,2.34041 1.15312,3.94922 1.15312,4.7894 1.4414,6.96447 2.01796,11.07306 3.45936,20.62155 3.45936,20.20761 2.59452,13.81163 2.01796,9.64236 1.72968,7.35543 1.72968,6.36943 1.4414,4.42421 1.15312,2.87141 1.15312,2.20291 0.86484,1.17207 0.86484,0.73047 0.57656,0.22983 0.57656,0.0172 0.57656,-0.20018 0.57656,-0.42089 0.57656,-0.64348 0.86484,-1.38262 0.86484,-1.87679 0.86484,-2.35456 1.15312,-3.83547 1.4414,-5.78059 1.72968,-8.05677 3.45936,-17.68609 2.01796,-9.76339 1.4414,-6.12757 1.4414,-5.17055 1.15312,-3.36245 1.15312,-2.65668 0.86484,-1.54631 0.86484,-1.1949 0.86484,-0.88529 0.86484,-0.62878 1.15312,-0.54875 3.45936,-1.31683 0.86484,-0.65367 0.86484,-0.92494 0.86484,-1.25479 0.86484,-1.63296 0.86484,-2.04769 1.15312,-3.41437 1.15312,-4.21082 1.15312,-4.98292 1.4414,-7.21178 1.72968,-9.81552 2.8828,-17.89047 2.8828,-17.57808 1.72968,-9.41253 1.4414,-6.84714 1.4414,-5.785955 1.15312,-3.808889 1.15312,-3.061806 0.86484,-1.807146 0.86484,-1.394414 0.86484,-0.990882 0.86484,-0.598237 0.57656,-0.186332 0.57656,-0.0202 0.57656,0.142857 0.86484,0.514048 0.86484,0.86704 0.86484,1.21447 0.86484,1.558507 1.15312,2.610769 1.15312,3.219569 1.15312,3.828671 1.4414,5.63617 1.4414,6.5537 1.72968,8.98101 2.01796,11.74283 6.91872,41.77335 1.4414,6.80192 1.15312,4.47602 1.15312,3.49329 0.86484,1.92715 0.86484,1.3126 0.57656,0.53128 0.57656,0.25868 0.57656,-0.009 0.57656,-0.26799 0.57656,-0.51662 0.86484,-1.21143 0.86484,-1.68588 1.15312,-2.87234 1.4414,-4.34266 2.8828,-9.74506 2.01796,-6.37756 1.4414,-3.80085 1.15312,-2.43769 1.15312,-1.84955 0.86484,-0.99865 0.86484,-0.68131 0.86484,-0.39186 0.86484,-0.14166 0.86484,0.0596 0.57656,0.12381 v 0"
       clip-path="url(#pcb2a6adda1)"
       style="display:none;fill:none;stroke:#3d4d8a;stroke-width:2.1;stroke-linecap:round"
       id="path47"
       transform="matrix(0.59029193,0,0,1.0000035,20.706279,-7.3313362e-4)"
       inkscape:label="010" />
    <path
       d="m 50.538,87.216789 2.01796,-1.245118 1.72968,-0.813938 1.4414,-0.42949 1.15312,-0.137188 1.15312,0.08169 1.15312,0.333407 1.15312,0.616869 1.15312,0.92981 1.15312,1.268846 1.15312,1.629574 1.15312,2.006707 1.15312,2.394247 1.4414,3.543057 1.4414,4.146678 1.72968,5.73723 1.72968,6.49717 2.01796,8.39989 2.59452,11.76721 8.93668,41.49436 2.01796,7.99596 1.72968,6.08662 1.72968,5.28065 1.4414,3.73817 1.4414,3.11299 1.15312,2.03572 1.15312,1.63517 1.15312,1.24417 1.15312,0.86821 0.86484,0.41634 0.86484,0.22619 0.86484,0.0474 1.15312,-0.19335 1.15312,-0.4575 1.15312,-0.68843 1.4414,-1.13381 1.72968,-1.67607 2.30624,-2.60236 3.45936,-4.30599 6.05388,-7.92852 3.17108,-4.48843 2.59452,-4.05492 2.59452,-4.50729 2.59452,-4.96642 3.74764,-7.71668 3.74764,-7.58376 2.01796,-3.60695 1.72968,-2.61674 1.4414,-1.74434 1.15312,-1.05807 1.15312,-0.72198 0.86484,-0.30308 0.86484,-0.0866 0.86484,0.13906 0.86484,0.37234 0.86484,0.61147 0.86484,0.8546 1.15312,1.52112 1.15312,1.95673 1.15312,2.38598 1.4414,3.56658 1.4414,4.17995 1.72968,5.75228 2.01796,7.58061 2.59452,10.77953 9.51324,40.79733 2.01796,7.24599 1.72968,5.49874 1.72968,4.78688 1.4414,3.43254 1.4414,2.93401 1.4414,2.45701 1.4414,2.01289 1.4414,1.61009 1.4414,1.25362 1.4414,0.94503 1.4414,0.68241 1.4414,0.46074 1.72968,0.30657 1.72968,0.0741 1.72968,-0.14124 1.72968,-0.36174 1.72968,-0.60724 1.4414,-0.72239 1.4414,-0.94955 1.4414,-1.20737 1.4414,-1.49492 1.4414,-1.80861 1.4414,-2.14229 1.72968,-3.02711 1.72968,-3.52541 2.01796,-4.71236 2.01796,-5.28357 2.59452,-7.4338 7.78356,-22.8308 1.72968,-4.26978 1.4414,-3.09605 1.4414,-2.59207 1.15312,-1.66325 1.15312,-1.26434 0.86484,-0.67057 0.86484,-0.42249 0.86484,-0.1675 0.86484,0.0923 0.86484,0.35468 0.86484,0.61735 0.86484,0.878 1.15312,1.56818 1.15312,2.00666 1.15312,2.42126 1.4414,3.56262 1.72968,4.96421 2.01796,6.55446 2.59452,9.23354 7.207,26.11807 2.59452,8.3244 2.30624,6.63555 2.30624,5.90384 2.30624,5.22876 2.30624,4.64786 2.30624,4.16801 2.59452,4.21393 2.59452,3.75801 2.30624,2.9328 2.01796,2.18889 1.72968,1.53252 1.4414,0.98765 1.15312,0.57241 1.15312,0.35637 1.15312,0.11971 1.15312,-0.13683 1.15312,-0.41189 1.15312,-0.70351 1.15312,-1.00913 1.15312,-1.32568 1.15312,-1.6495 1.4414,-2.52161 1.4414,-3.02811 1.4414,-3.5182 1.72968,-4.82607 2.01796,-6.36284 2.59452,-9.06817 8.07184,-29.09318 1.72968,-5.20675 1.72968,-4.47482 1.4414,-3.07916 1.15312,-1.99796 1.15312,-1.56322 0.86484,-0.88018 0.86484,-0.62762 0.86484,-0.37595 0.86484,-0.1276 0.86484,0.11506 0.86484,0.34987 0.86484,0.57484 1.15312,1.09614 1.15312,1.44374 1.4414,2.23964 1.4414,2.65389 1.72968,3.62453 2.30624,5.36986 3.74764,9.40379 6.91872,17.39885 5.7656,13.76683 10.66636,24.80872 3.17108,6.81108 2.30624,4.40767 1.72968,2.84919 1.4414,1.98902 1.15312,1.2929 1.15312,0.99265 1.15312,0.66154 0.86484,0.26162 0.86484,0.0485 0.86484,-0.17408 0.86484,-0.40459 0.86484,-0.64127 0.86484,-0.88219 1.15312,-1.55435 1.15312,-1.98491 1.15312,-2.40671 1.4414,-3.57579 1.4414,-4.15975 1.72968,-5.66772 2.30624,-8.46105 3.45936,-13.77543 4.03592,-15.88992 2.30624,-8.17134 2.01796,-6.27759 1.72968,-4.61228 1.4414,-3.25721 1.4414,-2.70818 1.15312,-1.77131 1.15312,-1.42673 1.15312,-1.09347 1.15312,-0.77543 1.15312,-0.47576 1.15312,-0.19679 1.15312,0.06 1.15312,0.2938 1.15312,0.5046 1.4414,0.89304 1.4414,1.1461 1.72968,1.65731 2.01796,2.25498 2.30624,2.9243 2.59452,3.66927 2.59452,4.05842 2.59452,4.49106 2.30624,4.42107 2.30624,4.8917 2.30624,5.41059 2.59452,6.71643 2.8828,8.14301 8.36012,24.1581 1.72968,4.13088 1.4414,2.951 1.4414,2.41339 1.15312,1.49291 0.86484,0.84262 0.86484,0.59243 0.86484,0.33321 0.86484,0.0674 0.86484,-0.20262 0.86484,-0.47418 0.86484,-0.7447 0.86484,-1.01163 1.15312,-1.75319 1.15312,-2.19562 1.4414,-3.32356 1.4414,-3.90298 1.72968,-5.33536 2.30624,-7.96442 3.45936,-12.97783 4.90076,-18.31943 2.59452,-8.79932 2.30624,-6.99168 2.01796,-5.38628 1.72968,-4.04949 1.72968,-3.52936 1.72968,-3.03011 1.72968,-2.56496 1.72968,-2.14298 1.72968,-1.7687 1.72968,-1.44163 1.72968,-1.1563 1.72968,-0.90248 1.72968,-0.66583 1.72968,-0.42911 1.72968,-0.1737 1.4414,0.0764 1.4414,0.30885 1.4414,0.57681 1.15312,0.6805 1.15312,0.89725 1.15312,1.13351 1.4414,1.77566 1.4414,2.19963 1.4414,2.64074 1.4414,3.08593 1.72968,4.27408 2.01796,5.70634 2.30624,7.29495 3.45936,11.82705 3.74764,12.62738 2.01796,6.09873 1.72968,4.57257 1.4414,3.23805 1.4414,2.64408 1.15312,1.65127 1.15312,1.21683 0.86484,0.61937 0.86484,0.36444 0.86484,0.1086 0.86484,-0.1461 0.86484,-0.3977 0.86484,-0.64428 0.86484,-0.88407 1.15312,-1.53697 1.15312,-1.92394 1.4414,-2.90562 1.4414,-3.40284 1.72968,-4.64157 2.30624,-6.92471 3.17108,-10.36665 6.63044,-21.89488 2.8828,-8.69918 2.8828,-7.98122 2.8828,-7.32155 3.45936,-8.1381 4.3242,-9.56898 3.74764,-7.81182 2.59452,-4.92394 2.01796,-3.35425 1.72968,-2.40698 1.4414,-1.59134 1.15312,-0.95674 1.15312,-0.64349 0.86484,-0.26122 0.86484,-0.0609 0.86484,0.14728 0.86484,0.36141 0.86484,0.57957 0.86484,0.79972 1.15312,1.4081 1.15312,1.79236 1.15312,2.16319 1.4414,3.19405 1.72968,4.47927 2.01796,5.96483 2.59452,8.48274 6.63044,22.13721 2.01796,5.81234 1.72968,4.31892 1.4414,3.04384 1.4414,2.48325 1.15312,1.5569 1.15312,1.16059 0.86484,0.60604 0.86484,0.37852 0.86484,0.1523 0.86484,-0.0708 0.86484,-0.28892 0.86484,-0.50038 1.15312,-0.98166 1.15312,-1.31926 1.15312,-1.62952 1.4414,-2.42664 1.72968,-3.39896 2.01796,-4.49331 2.59452,-6.3482 4.3242,-11.26975 7.207,-19.40728 3.74764,-10.74273 3.17108,-9.78454 3.45936,-11.4409 8.36012,-28.11158 2.01796,-5.85517 1.72968,-4.39924 1.4414,-3.13529 1.4414,-2.58617 1.15312,-1.63829 1.15312,-1.23222 0.86484,-0.64792 0.86484,-0.40587 0.86484,-0.16105 0.86484,0.0846 0.86484,0.32914 0.86484,0.57068 0.86484,0.80723 1.15312,1.43213 1.15312,1.81881 1.4414,2.77547 1.4414,3.27247 1.72968,4.47531 2.30624,6.64882 7.78356,23.14926 1.72968,4.27972 1.72968,3.68489 1.4414,2.5591 1.4414,2.06397 1.15312,1.28685 1.15312,0.96447 1.15312,0.6498 1.15312,0.34816 1.15312,0.064 1.15312,-0.19929 1.15312,-0.43933 1.15312,-0.65493 1.4414,-1.08467 1.72968,-1.63267 2.01796,-2.27833 2.01796,-2.60981 2.30624,-3.34453 1.72968,-2.76757 v 0"
       clip-path="url(#pcb2a6adda1)"
       style="display:inline;fill:none;stroke:#ff2a2a;stroke-width:2.1;stroke-linecap:round"
       id="path48"
       transform="matrix(0.5902934,0,0,0.54736835,20.705695,171.18946)"
       inkscape:label="020" />
    <path
       d="m 50.538,102.35455 1.72968,0.53374 1.72968,0.80871 1.72968,1.09504 1.72968,1.38899 1.72968,1.68655 1.72968,1.98357 2.01796,2.68272 2.01796,3.06459 2.30624,3.9391 2.59452,4.9294 2.8828,5.99044 3.74764,8.3569 10.0898,22.83658 2.8828,5.83183 2.59452,4.73877 2.30624,3.73139 2.01796,2.85346 2.01796,2.44462 1.72968,1.75859 1.72968,1.44301 1.72968,1.12772 1.4414,0.70217 1.4414,0.49127 1.4414,0.28717 1.4414,0.0916 1.72968,-0.1338 1.72968,-0.38029 1.72968,-0.6036 2.01796,-0.95213 2.30624,-1.36049 2.8828,-2.00396 4.61248,-3.55352 4.03592,-3.02167 2.59452,-1.68799 2.30624,-1.22704 2.01796,-0.80352 1.72968,-0.45298 1.72968,-0.20928 1.4414,0.0273 1.4414,0.22179 1.4414,0.42479 1.4414,0.63411 1.4414,0.84755 1.72968,1.30108 1.72968,1.60925 1.72968,1.91073 2.01796,2.59427 2.01796,2.96132 2.30624,3.78767 2.59452,4.6962 3.17108,6.20929 5.7656,11.90089 4.61248,9.27807 2.8828,5.34879 2.59452,4.36965 2.30624,3.45507 2.01796,2.64957 2.01796,2.27258 1.72968,1.63275 1.72968,1.33295 1.72968,1.0287 1.4414,0.62422 1.4414,0.4139 1.4414,0.20688 1.4414,0.005 1.4414,-0.19064 1.72968,-0.47504 1.72968,-0.7273 1.72968,-0.95923 2.01796,-1.3809 2.30624,-1.87165 2.59452,-2.39538 4.03592,-4.08066 5.18904,-5.22449 2.59452,-2.31871 2.30624,-1.76593 2.01796,-1.25428 1.72968,-0.82252 1.72968,-0.56313 1.4414,-0.25616 1.4414,-0.0522 1.4414,0.15892 1.4414,0.3747 1.4414,0.59262 1.4414,0.81015 1.72968,1.255 1.72968,1.5541 1.72968,1.83854 2.01796,2.47855 2.30624,3.22591 2.59452,4.05047 3.17108,5.40364 5.18904,9.37909 4.90076,8.70909 3.17108,5.18303 2.59452,3.81872 2.30624,2.99769 2.01796,2.27251 2.01796,1.91378 1.72968,1.33632 1.72968,1.04312 1.4414,0.63922 1.4414,0.42692 1.4414,0.21353 1.4414,9.1e-4 1.4414,-0.20905 1.4414,-0.4144 1.72968,-0.75897 1.72968,-1.03011 1.72968,-1.28218 2.01796,-1.78365 2.30624,-2.36507 2.59452,-2.98847 3.74764,-4.69512 6.05388,-7.61272 2.59452,-2.92269 2.30624,-2.28108 2.01796,-1.68964 1.72968,-1.18634 1.72968,-0.92082 1.72968,-0.63754 1.4414,-0.30545 1.4414,-0.0948 1.4414,0.1182 1.4414,0.33132 1.4414,0.54215 1.72968,0.92244 1.72968,1.20772 1.72968,1.47721 2.01796,2.03783 2.30624,2.6985 2.59452,3.43184 3.17108,4.62343 4.90076,7.63681 5.18904,7.98698 2.8828,4.06985 2.59452,3.28498 2.30624,2.53823 2.01796,1.8763 1.72968,1.32388 1.72968,1.04138 1.4414,0.64085 1.4414,0.42712 1.4414,0.20856 1.4414,-0.0127 1.4414,-0.23452 1.4414,-0.45453 1.4414,-0.67046 1.72968,-1.08036 1.72968,-1.36639 1.72968,-1.63229 2.01796,-2.20744 2.30624,-2.86585 2.8828,-3.9808 4.03592,-6.00714 5.7656,-8.54643 2.8828,-3.86562 2.30624,-2.75147 2.01796,-2.10046 2.01796,-1.77408 1.72968,-1.23776 1.72968,-0.96115 1.72968,-0.67434 1.4414,-0.33841 1.4414,-0.13377 1.4414,0.0702 1.4414,0.27152 1.4414,0.46847 1.72968,0.81335 1.72968,1.0743 1.72968,1.3183 2.01796,1.81971 2.30624,2.4062 2.59452,3.04909 3.45936,4.46311 9.51324,12.55729 2.59452,2.94538 2.30624,2.26723 2.01796,1.65422 1.72968,1.13926 1.72968,0.85796 1.4414,0.48647 1.4414,0.26961 1.4414,0.0466 1.4414,-0.18022 1.4414,-0.40829 1.4414,-0.63509 1.4414,-0.85811 1.72968,-1.31509 1.72968,-1.61162 2.01796,-2.2279 2.01796,-2.5646 2.30624,-3.28371 2.8828,-4.51867 4.03592,-6.79798 6.63044,-11.20274 3.17108,-4.87731 2.59452,-3.57175 2.30624,-2.7826 2.01796,-2.09046 1.72968,-1.51429 1.72968,-1.24395 1.72968,-0.96386 1.72968,-0.67752 1.4414,-0.34384 1.4414,-0.14345 1.4414,0.0548 1.4414,0.24921 1.72968,0.54759 1.72968,0.80621 1.72968,1.04813 2.01796,1.5014 2.30624,2.03619 2.59452,2.61936 3.45936,3.85172 7.207,8.14277 2.59452,2.55518 2.01796,1.71888 2.01796,1.42664 1.72968,0.95517 1.72968,0.6817 1.4414,0.3443 1.4414,0.13075 1.4414,-0.0897 1.4414,-0.31468 1.4414,-0.54162 1.4414,-0.76802 1.4414,-0.99145 1.72968,-1.47698 1.72968,-1.77739 2.01796,-2.42932 2.01796,-2.77886 2.30624,-3.5509 2.8828,-4.89875 3.45936,-6.35542 11.24292,-21.04321 2.8828,-4.73047 2.30624,-3.40353 2.30624,-3.00393 2.01796,-2.26316 1.72968,-1.64773 1.72968,-1.3647 1.72968,-1.07281 1.72968,-0.77596 1.4414,-0.41917 1.4414,-0.21419 1.4414,-0.0131 1.4414,0.18179 1.72968,0.4637 1.72968,0.71408 1.72968,0.94187 2.01796,1.35105 2.30624,1.8167 3.17108,2.82686 8.07184,7.37891 2.30624,1.74472 2.01796,1.26619 1.72968,0.85206 1.72968,0.6078 1.72968,0.34033 1.4414,0.0656 1.4414,-0.14184 1.4414,-0.3555 1.4414,-0.57314 1.4414,-0.79257 1.72968,-1.23999 1.72968,-1.55057 1.72968,-1.85232 2.01796,-2.52534 2.01796,-2.89252 2.30624,-3.71403 2.59452,-4.63142 2.8828,-5.60163 4.03592,-8.39031 9.51324,-20.05507 3.17108,-6.04318 2.59452,-4.4733 2.30624,-3.54119 2.01796,-2.71852 2.01796,-2.33375 1.72968,-1.67811 1.72968,-1.37176 1.72968,-1.06202 1.4414,-0.64941 1.4414,-0.43899 1.4414,-0.23465 1.4414,-0.0388 1.72968,0.1965 1.72968,0.4399 1.72968,0.65623 2.01796,0.99788 2.59452,1.5666 3.74764,2.58715 4.90076,3.36338 2.59452,1.50313 2.01796,0.93626 2.01796,0.67875 1.72968,0.34415 1.72968,0.10008 1.4414,-0.11732 1.4414,-0.30989 1.4414,-0.50998 1.4414,-0.71576 1.72968,-1.1358 1.72968,-1.4407 1.72968,-1.74508 1.72968,-2.04525 2.01796,-2.755 0.28828,-0.42507 v 0"
       clip-path="url(#pcb2a6adda1)"
       style="display:none;fill:none;stroke:#1fa287;stroke-width:2.1;stroke-linecap:round"
       id="path49"
       transform="matrix(0.59029193,0,0,1.0000035,20.706279,-7.3313362e-4)"
       inkscape:label="035" />
    <path
       d="m 50.538,116.93219 4.03592,3.14468 4.03592,3.4307 4.03592,3.71841 4.61248,4.57013 5.47732,5.77015 17.00852,18.18994 4.3242,4.14243 3.74764,3.2936 3.45936,2.76691 3.45936,2.49349 3.45936,2.22361 3.45936,1.971 3.74764,1.88529 4.3242,1.92037 6.05388,2.41517 8.6484,3.45428 4.61248,2.10027 4.03592,2.08745 3.74764,2.18435 3.74764,2.43458 4.03592,2.89377 4.3242,3.37639 5.47732,4.57826 14.12572,11.98157 4.3242,3.28831 3.74764,2.57582 3.45936,2.1156 3.45936,1.84582 3.17108,1.45166 3.45936,1.33046 3.45936,1.08852 3.74764,0.94669 4.61248,0.91732 8.6484,1.41407 5.47732,1.02244 4.3242,1.03698 3.74764,1.12478 3.74764,1.36532 3.74764,1.61581 3.74764,1.85701 4.3242,2.40512 5.18904,3.15977 14.12572,8.76471 4.03592,2.162 3.45936,1.62208 3.45936,1.37425 3.17108,1.02488 3.17108,0.79462 3.17108,0.56905 3.45936,0.38058 3.45936,0.16 4.03592,-0.0361 5.47732,-0.29254 9.80152,-0.55862 4.3242,2.6e-4 3.74764,0.21582 3.45936,0.4076 3.45936,0.6203 3.74764,0.90946 3.74764,1.13594 4.3242,1.54137 6.05388,2.41576 8.6484,3.44174 4.3242,1.47186 3.74764,1.03753 3.45936,0.71633 3.17108,0.42942 3.17108,0.20087 3.17108,-0.0286 3.17108,-0.24902 3.45936,-0.50126 3.74764,-0.77298 4.61248,-1.19461 16.43196,-4.51927 4.03592,-0.73523 3.74764,-0.44364 3.45936,-0.18887 3.45936,0.0227 3.74764,0.24631 4.3242,0.52431 5.47732,0.91042 10.0898,1.7222 4.03592,0.449 3.45936,0.18127 3.45936,-0.0483 3.17108,-0.26971 3.17108,-0.49761 3.17108,-0.72743 3.17108,-0.9493 3.45936,-1.26791 3.74764,-1.60793 4.61248,-2.23002 9.22496,-4.79531 5.7656,-2.8362 4.3242,-1.87651 3.74764,-1.39267 3.74764,-1.14877 3.74764,-0.89863 3.74764,-0.66147 4.03592,-0.48338 4.90076,-0.35404 13.54916,-0.83687 3.74764,-0.52083 3.45936,-0.69571 3.17108,-0.84986 3.17108,-1.07125 3.17108,-1.30095 3.17108,-1.52909 3.45936,-1.91472 3.74764,-2.33343 4.3242,-2.963 6.05388,-4.45504 10.0898,-7.45752 4.61248,-3.11855 4.03592,-2.47058 3.74764,-2.04444 3.74764,-1.794 3.74764,-1.55334 4.03592,-1.43661 4.90076,-1.49714 14.99056,-4.38423 3.74764,-1.42376 3.45936,-1.53885 3.45936,-1.78752 3.45936,-2.05556 3.45936,-2.32934 3.45936,-2.59491 3.74764,-3.08533 4.3242,-3.85749 5.47732,-5.2063 14.12572,-13.58815 4.61248,-4.04301 4.03592,-3.25699 4.03592,-2.9692 4.03592,-2.68321 4.3242,-2.58899 4.90076,-2.65636 17.2968,-9.09332 3.74764,-2.36696 3.74764,-2.63788 3.45936,-2.70484 3.45936,-2.97741 3.74764,-3.53153 0.57656,-0.57057 v 0"
       clip-path="url(#pcb2a6adda1)"
       style="display:none;fill:none;stroke:#5cc863;stroke-width:2.1;stroke-linecap:round"
       id="path50"
       transform="matrix(0.59029193,0,0,1.0000035,20.706279,-7.3313362e-4)"
       inkscape:label="055" />
    <path
       d="m 50.538,119.00956 13.83744,11.81381 12.39604,10.3054 10.66636,8.58381 9.51324,7.36897 8.93668,6.64208 8.93668,6.36776 9.51324,6.50557 10.66636,7.02287 12.39604,7.89252 12.68432,7.82225 10.95464,6.50996 9.51324,5.40517 8.6484,4.66767 8.36012,4.26747 8.6484,4.16353 9.22496,4.18807 10.37808,4.45875 11.81948,4.8322 12.39604,4.82903 10.66636,3.9257 9.22496,3.16674 8.36012,2.64397 8.07184,2.32645 8.36012,2.17267 8.6484,2.01368 9.51324,1.98482 10.95464,2.05548 12.10776,2.04448 10.95464,1.63575 9.51324,1.20531 8.6484,0.87311 8.07184,0.59276 8.07184,0.36658 8.36012,0.1498 8.93668,-0.0675 10.0898,-0.30272 11.5312,-0.57027 11.81948,-0.80399 10.37808,-0.92534 8.93668,-1.01446 8.36012,-1.17236 8.07184,-1.35857 8.07184,-1.58322 8.6484,-1.92629 9.51324,-2.34966 10.95464,-2.93634 12.10776,-3.47302 11.24292,-3.44751 9.80152,-3.23483 8.6484,-3.0823 8.36012,-3.2151 8.36012,-3.45767 8.6484,-3.82022 9.51324,-4.44903 10.95464,-5.37342 12.39604,-6.32699 12.10776,-6.42295 10.37808,-5.75194 9.22496,-5.36444 8.6484,-5.28292 8.6484,-5.54238 9.22496,-6.18424 10.0898,-7.03905 11.81948,-8.52557 13.26088,-9.84086 12.10776,-9.24724 10.37808,-8.19285 9.51324,-7.79014 9.22496,-7.84672 2.8828,-2.51281 v 0"
       clip-path="url(#pcb2a6adda1)"
       style="display:inline;fill:none;stroke:#cae11f;stroke-width:2.1;stroke-linecap:round"
       id="path51"
       transform="matrix(0.5902934,0,0,0.54736835,20.705695,171.18946)"
       inkscape:label="080" />
  </g>
  <g
     inkscape:groupmode="layer"
     id="layer4"
     inkscape:label="y-axis"
     transform="translate(0.02706406,-165.41917)">
    <g
       id="g292"
       transform="translate(-7.0635866,36)"
       inkscape:label="label">
      <use
         xlink:href="#DejaVuSans-27e8"
         transform="matrix(0,-0.24744326,-0.24744326,0,25.838344,232.59058)"
         id="use40"
         style="fill:#262626" />
      <use
         xlink:href="#DejaVuSans-Oblique-66"
         transform="matrix(0,-0.24744326,-0.24744326,0,25.838344,222.93691)"
         id="use41"
         style="fill:#262626" />
      <use
         xlink:href="#DejaVuSans-27e9"
         transform="matrix(0,-0.24744326,-0.24744326,0,25.838344,214.22564)"
         id="use42"
         style="fill:#262626" />
      <use
         xlink:href="#DejaVuSans-Oblique-3bb"
         transform="matrix(0,-0.17321028,-0.17321028,0,29.89796,204.33516)"
         id="use43"
         style="fill:#262626" />
      <use
         xlink:href="#DejaVuSans-28"
         transform="matrix(0,-0.24744326,-0.24744326,0,25.838344,193.40804)"
         id="use44"
         style="fill:#262626" />
      <use
         xlink:href="#DejaVuSans-Oblique-78"
         transform="matrix(0,-0.24744326,-0.24744326,0,25.838344,183.75437)"
         id="use45"
         style="fill:#262626" />
      <use
         xlink:href="#DejaVuSans-29"
         transform="matrix(0,-0.24744326,-0.24744326,0,25.838344,169.11075)"
         id="use46"
         style="fill:#262626" />
    </g>
    <g
       id="g293"
       inkscape:label="ticks"
       style="display:none">
      <use
         xlink:href="#LiberationSans-2212"
         id="use3"
         transform="matrix(0.1,0,0,-0.1,44.837219,404.28687)"
         style="fill:#262626" />
      <use
         xlink:href="#LiberationSans-2212"
         id="use17"
         transform="matrix(0.1,0,0,-0.1,27.297375,394.06)"
         style="fill:#262626" />
      <use
         xlink:href="#LiberationSans-31"
         transform="matrix(0.1,0,0,-0.1,33.137219,394.06)"
         id="use18"
         style="fill:#262626" />
      <use
         xlink:href="#LiberationSans-2e"
         transform="matrix(0.1,0,0,-0.1,38.698742,394.06)"
         id="use19"
         style="fill:#262626" />
      <use
         xlink:href="#LiberationSans-30"
         transform="matrix(0.1,0,0,-0.1,41.477062,394.06)"
         id="use20"
         style="fill:#262626" />
      <use
         xlink:href="#LiberationSans-2212"
         id="use21"
         transform="matrix(0.1,0,0,-0.1,27.297375,335.23749)"
         style="fill:#262626" />
      <use
         xlink:href="#LiberationSans-30"
         transform="matrix(0.1,0,0,-0.1,33.137219,335.23749)"
         id="use22"
         style="fill:#262626" />
      <use
         xlink:href="#LiberationSans-2e"
         transform="matrix(0.1,0,0,-0.1,38.698742,335.23749)"
         id="use23"
         style="fill:#262626" />
      <use
         xlink:href="#LiberationSans-35"
         transform="matrix(0.1,0,0,-0.1,41.477062,335.23749)"
         id="use24"
         style="fill:#262626" />
      <use
         xlink:href="#LiberationSans-30"
         id="use25"
         transform="matrix(0.1,0,0,-0.1,33.138,276.41498)"
         style="fill:#262626" />
      <use
         xlink:href="#LiberationSans-2e"
         transform="matrix(0.1,0,0,-0.1,38.699523,276.41498)"
         id="use26"
         style="fill:#262626" />
      <use
         xlink:href="#LiberationSans-30"
         transform="matrix(0.1,0,0,-0.1,41.477844,276.41498)"
         id="use27"
         style="fill:#262626" />
      <use
         xlink:href="#LiberationSans-30"
         id="use28"
         transform="matrix(0.1,0,0,-0.1,32.94171,217.49403)"
         style="fill:#262626" />
      <use
         xlink:href="#LiberationSans-2e"
         transform="matrix(0.1,0,0,-0.1,38.699523,217.59247)"
         id="use29"
         style="fill:#262626" />
      <use
         xlink:href="#LiberationSans-35"
         transform="matrix(0.1,0,0,-0.1,41.477844,217.59247)"
         id="use30"
         style="fill:#262626" />
      <use
         xlink:href="#LiberationSans-31"
         id="use31"
         transform="matrix(0.1,0,0,-0.1,33.138,158.76996)"
         style="fill:#262626" />
      <use
         xlink:href="#LiberationSans-2e"
         transform="matrix(0.1,0,0,-0.1,38.699523,158.76996)"
         id="use32"
         style="fill:#262626" />
      <use
         xlink:href="#LiberationSans-30"
         transform="matrix(0.1,0,0,-0.1,41.477844,158.76996)"
         id="use33"
         style="fill:#262626" />
      <use
         xlink:href="#LiberationSans-31"
         id="use34"
         transform="matrix(0.1,0,0,-0.1,33.138,99.94745)"
         style="fill:#262626" />
      <use
         xlink:href="#LiberationSans-2e"
         transform="matrix(0.1,0,0,-0.1,38.699523,99.94745)"
         id="use35"
         style="fill:#262626" />
      <use
         xlink:href="#LiberationSans-35"
         transform="matrix(0.1,0,0,-0.1,41.477844,99.94745)"
         id="use36"
         style="fill:#262626" />
      <use
         xlink:href="#LiberationSans-32"
         id="use37"
         transform="matrix(0.1,0,0,-0.1,33.138,41.124939)"
         style="fill:#262626" />
      <use
         xlink:href="#LiberationSans-2e"
         transform="matrix(0.1,0,0,-0.1,38.699523,41.124939)"
         id="use38"
         style="fill:#262626" />
      <use
         xlink:href="#LiberationSans-30"
         transform="matrix(0.1,0,0,-0.1,41.477844,41.124939)"
         id="use39"
         style="fill:#262626" />
    </g>
  </g>
  <g
     inkscape:groupmode="layer"
     id="layer5"
     inkscape:label="x-axis"
     transform="translate(0.02706406,-165.41917)"
     style="display:inline">
    <use
       xlink:href="#LiberationSans-78"
       id="use16"
       transform="matrix(0.05893216,0,0,-0.1004973,252.76631,417.66984)"
       style="display:none;fill:#262626"
       inkscape:label="label" />
    <g
       id="g294"
       inkscape:label="ticks"
       transform="matrix(0.58932155,0,0,1.004973,20.588937,-2.0156885)"
       style="display:none">
      <use
         xlink:href="#LiberationSans-34"
         transform="matrix(0.1,0,0,-0.1,50.677063,404.28687)"
         id="use4"
         style="fill:#262626" />
      <use
         xlink:href="#LiberationSans-2212"
         id="use5"
         transform="matrix(0.1,0,0,-0.1,131.32122,404.28687)"
         style="fill:#262626" />
      <use
         xlink:href="#LiberationSans-33"
         transform="matrix(0.1,0,0,-0.1,137.16106,404.28687)"
         id="use6"
         style="fill:#262626" />
      <use
         xlink:href="#LiberationSans-2212"
         id="use7"
         transform="matrix(0.1,0,0,-0.1,217.80522,404.28687)"
         style="fill:#262626" />
      <use
         xlink:href="#LiberationSans-32"
         transform="matrix(0.1,0,0,-0.1,223.64506,404.28687)"
         id="use8"
         style="fill:#262626" />
      <use
         xlink:href="#LiberationSans-2212"
         id="use9"
         transform="matrix(0.1,0,0,-0.1,304.28922,404.28687)"
         style="fill:#262626" />
      <use
         xlink:href="#LiberationSans-31"
         transform="matrix(0.1,0,0,-0.1,310.12906,404.28687)"
         id="use10"
         style="fill:#262626" />
      <use
         xlink:href="#LiberationSans-30"
         id="use11"
         transform="matrix(0.1,0,0,-0.1,393.69353,404.28687)"
         style="fill:#262626" />
      <use
         xlink:href="#LiberationSans-31"
         id="use12"
         transform="matrix(0.1,0,0,-0.1,480.17753,404.28687)"
         style="fill:#262626" />
      <use
         xlink:href="#LiberationSans-32"
         id="use13"
         transform="matrix(0.1,0,0,-0.1,566.66153,404.28687)"
         style="fill:#262626" />
      <use
         xlink:href="#LiberationSans-33"
         id="use14"
         transform="matrix(0.1,0,0,-0.1,653.14553,404.28687)"
         style="fill:#262626" />
      <use
         xlink:href="#LiberationSans-34"
         id="use15"
         transform="matrix(0.1,0,0,-0.1,739.62953,404.28687)"
         style="fill:#262626" />
    </g>
    <path
       d="M 50.372069,393.4814 H 458.10714"
       style="display:inline;fill:none;stroke:#cccccc;stroke-width:0.769579;stroke-linecap:square;stroke-linejoin:miter"
       id="path54"
       inkscape:label="line" />
  </g>
</svg>
