<?xml version="1.0" encoding="UTF-8" standalone="no"?>
<svg
   width="111.50266pt"
   height="110.0464pt"
   viewBox="0 0 111.50266 110.0464"
   version="1.1"
   id="svg232"
   sodipodi:docname="two_minima_distance_spy.svg"
   inkscape:version="1.4.3 (0d15f75, 2025-12-25)"
   xmlns:inkscape="http://www.inkscape.org/namespaces/inkscape"
   xmlns:sodipodi="http://sodipodi.sourceforge.net/DTD/sodipodi-0.dtd"
   xmlns:xlink="http://www.w3.org/1999/xlink"
   xmlns="http://www.w3.org/2000/svg"
   xmlns:svg="http://www.w3.org/2000/svg"
   xmlns:rdf="http://www.w3.org/1999/02/22-rdf-syntax-ns#"
   xmlns:cc="http://creativecommons.org/ns#"
   xmlns:dc="http://purl.org/dc/elements/1.1/">
  <sodipodi:namedview
     id="namedview232"
     pagecolor="#ffffff"
     bordercolor="#000000"
     borderopacity="0.25"
     inkscape:showpageshadow="2"
     inkscape:pageopacity="0.0"
     inkscape:pagecheckerboard="0"
     inkscape:deskcolor="#d1d1d1"
     inkscape:document-units="pt"
     inkscape:zoom="5.5841181"
     inkscape:cx="98.135459"
     inkscape:cy="47.724635"
     inkscape:window-width="2560"
     inkscape:window-height="1494"
     inkscape:window-x="1609"
     inkscape:window-y="844"
     inkscape:window-maximized="1"
     inkscape:current-layer="svg232" />
  <metadata
     id="metadata1">
    <rdf:RDF>
      <cc:Work>
        <dc:type
           rdf:resource="http://purl.org/dc/dcmitype/StillImage" />
        <dc:date>2026-04-27T12:57:44.312234</dc:date>
        <dc:format>image/svg+xml</dc:format>
        <dc:creator>
          <cc:Agent>
            <dc:title>Matplotlib v3.10.9, https://matplotlib.org/</dc:title>
          </cc:Agent>
        </dc:creator>
      </cc:Work>
    </rdf:RDF>
  </metadata>
  <defs
     id="defs1">
    <style
       type="text/css"
       id="style1">*{stroke-linejoin: round; stroke-linecap: butt}</style>
  </defs>
  <g
     id="patch_2"
     transform="matrix(0.29135377,0,0,0.29135377,-12.490955,-6.7404435)">
    <path
       d="M 71.79546,397.34208 H 425.17754 V 43.96 H 71.79546 Z"
       style="fill:#ffffff"
       id="path2" />
  </g>
  <g
     id="PathCollection_1"
     transform="matrix(0.29135377,0,0,0.29135377,-12.490955,-6.7404435)">
    <path
       d="m 330.81122,67.649901 h 12.0416 V 55.608307 h -12.0416 z"
       clip-path="url(#pc328678bd1)"
       style="fill:none;stroke:#ef4444;stroke-width:2.1"
       id="path3" />
    <path
       d="m 83.443767,315.01736 h 12.041594 v -12.0416 H 83.443767 Z"
       clip-path="url(#pc328678bd1)"
       style="fill:none;stroke:#ef4444;stroke-width:2.1"
       id="path4" />
  </g>
  <g
     id="PathCollection_2"
     transform="matrix(0.29135377,0,0,0.29135377,-12.490955,-6.7404435)">
    <path
       d="m 330.81122,102.98811 h 12.0416 V 90.946515 h -12.0416 z"
       clip-path="url(#pc328678bd1)"
       style="fill:none;stroke:#ef4444;stroke-width:2.1"
       id="path5" />
    <path
       d="m 118.78198,315.01736 h 12.04159 v -12.0416 h -12.04159 z"
       clip-path="url(#pc328678bd1)"
       style="fill:none;stroke:#ef4444;stroke-width:2.1"
       id="path6" />
  </g>
  <g
     id="line2d_1"
     transform="matrix(0.29135377,0,0,0.29135377,-12.490955,-6.7404435)">
    <path
       d="M 89.464564,397.34208 V 43.96"
       clip-path="url(#pc328678bd1)"
       style="fill:none;stroke:#d1d5db;stroke-width:0.8;stroke-linecap:square"
       id="path7" />
  </g>
  <g
     id="line2d_2"
     transform="matrix(0.29135377,0,0,0.29135377,-12.490955,-6.7404435)">
    <defs
       id="defs7">
      <path
         id="maeecb28aa8"
         d="M 0,0 V 3.5"
         style="stroke:#000000;stroke-width:0.8" />
    </defs>
    <g
       id="g7">
      <use
         xlink:href="#maeecb28aa8"
         x="89.464561"
         y="397.34207"
         style="stroke:#000000;stroke-width:0.8"
         id="use7" />
    </g>
  </g>
  <g
     id="line2d_3"
     transform="matrix(0.29135377,0,0,0.29135377,-12.490955,-6.7404435)">
    <defs
       id="defs8">
      <path
         id="m2693456868"
         d="M 0,0 V -3.5"
         style="stroke:#000000;stroke-width:0.8" />
    </defs>
    <g
       id="g8">
      <use
         xlink:href="#m2693456868"
         x="89.464561"
         y="43.959999"
         style="stroke:#000000;stroke-width:0.8"
         id="use8" />
    </g>
  </g>
  <g
     id="text_1"
     transform="matrix(0.62442239,0,0,0.62442239,-42.406326,-17.145663)">
    <!-- 1 -->
    <g
       transform="matrix(0.1,0,0,-0.1,86.283314,34.880313)"
       id="g9">
      <defs
         id="defs9">
        <path
           id="DejaVuSans-31"
           d="M 794,531 H 1825 V 4091 L 703,3866 v 575 l 1116,225 h 631 V 531 H 3481 V 0 H 794 Z"
           transform="scale(0.015625)" />
      </defs>
      <use
         xlink:href="#DejaVuSans-31"
         id="use9" />
    </g>
  </g>
  <g
     id="line2d_4"
     transform="matrix(0.29135377,0,0,0.29135377,-12.490955,-6.7404435)">
    <path
       d="M 124.80277,397.34208 V 43.96"
       clip-path="url(#pc328678bd1)"
       style="fill:none;stroke:#d1d5db;stroke-width:0.8;stroke-linecap:square"
       id="path9" />
  </g>
  <g
     id="line2d_5"
     transform="matrix(0.29135377,0,0,0.29135377,-12.490955,-6.7404435)">
    <g
       id="g10">
      <use
         xlink:href="#maeecb28aa8"
         x="124.80277"
         y="397.34207"
         style="stroke:#000000;stroke-width:0.8"
         id="use10" />
    </g>
  </g>
  <g
     id="line2d_6"
     transform="matrix(0.29135377,0,0,0.29135377,-12.490955,-6.7404435)">
    <g
       id="g11">
      <use
         xlink:href="#m2693456868"
         x="124.80277"
         y="43.959999"
         style="stroke:#000000;stroke-width:0.8"
         id="use11" />
    </g>
  </g>
  <g
     id="text_2"
     transform="matrix(0.62442239,0,0,0.62442239,-54.030986,-17.145663)">
    <!-- 2 -->
    <g
       transform="matrix(0.1,0,0,-0.1,121.62152,34.880313)"
       id="g12">
      <defs
         id="defs11">
        <path
           id="DejaVuSans-32"
           d="M 1228,531 H 3431 V 0 H 469 v 531 q 359,372 979,998 621,627 780,809 303,340 423,576 121,236 121,464 0,372 -261,606 -261,235 -680,235 -297,0 -627,-103 -329,-103 -704,-313 v 638 q 381,153 712,231 332,78 607,78 725,0 1156,-363 431,-362 431,-968 0,-288 -108,-546 -107,-257 -392,-607 -78,-91 -497,-524 Q 1991,1309 1228,531 Z"
           transform="scale(0.015625)" />
      </defs>
      <use
         xlink:href="#DejaVuSans-32"
         id="use12" />
    </g>
  </g>
  <g
     id="line2d_7"
     transform="matrix(0.29135377,0,0,0.29135377,-12.490955,-6.7404435)">
    <path
       d="M 160.14098,397.34208 V 43.96"
       clip-path="url(#pc328678bd1)"
       style="fill:none;stroke:#d1d5db;stroke-width:0.8;stroke-linecap:square"
       id="path12" />
  </g>
  <g
     id="line2d_8"
     transform="matrix(0.29135377,0,0,0.29135377,-12.490955,-6.7404435)">
    <g
       id="g13">
      <use
         xlink:href="#maeecb28aa8"
         x="160.14098"
         y="397.34207"
         style="stroke:#000000;stroke-width:0.8"
         id="use13" />
    </g>
  </g>
  <g
     id="line2d_9"
     transform="matrix(0.29135377,0,0,0.29135377,-12.490955,-6.7404435)">
    <g
       id="g14">
      <use
         xlink:href="#m2693456868"
         x="160.14098"
         y="43.959999"
         style="stroke:#000000;stroke-width:0.8"
         id="use14" />
    </g>
  </g>
  <g
     id="text_3"
     transform="matrix(0.62442239,0,0,0.62442239,-65.865906,-17.145663)">
    <!-- 3 -->
    <g
       transform="matrix(0.1,0,0,-0.1,156.95973,34.880313)"
       id="g15">
      <defs
         id="defs14">
        <path
           id="DejaVuSans-33"
           d="m 2597,2516 q 453,-97 707,-404 255,-306 255,-756 0,-690 -475,-1069 -475,-378 -1350,-378 -293,0 -604,58 -311,58 -642,174 v 609 q 262,-153 574,-231 313,-78 654,-78 593,0 904,234 311,234 311,681 0,413 -289,645 -289,233 -804,233 h -544 v 519 h 569 q 465,0 712,186 247,186 247,536 0,359 -255,551 -254,193 -729,193 -260,0 -557,-57 -297,-56 -653,-174 v 562 q 360,100 674,150 314,50 592,50 719,0 1137,-327 419,-326 419,-882 0,-388 -222,-655 -222,-267 -631,-370 z"
           transform="scale(0.015625)" />
      </defs>
      <use
         xlink:href="#DejaVuSans-33"
         id="use15" />
    </g>
  </g>
  <g
     id="line2d_10"
     transform="matrix(0.29135377,0,0,0.29135377,-12.490955,-6.7404435)">
    <path
       d="M 195.47919,397.34208 V 43.96"
       clip-path="url(#pc328678bd1)"
       style="fill:none;stroke:#d1d5db;stroke-width:0.8;stroke-linecap:square"
       id="path15" />
  </g>
  <g
     id="line2d_11"
     transform="matrix(0.29135377,0,0,0.29135377,-12.490955,-6.7404435)">
    <g
       id="g16">
      <use
         xlink:href="#maeecb28aa8"
         x="195.47919"
         y="397.34207"
         style="stroke:#000000;stroke-width:0.8"
         id="use16" />
    </g>
  </g>
  <g
     id="line2d_12"
     transform="matrix(0.29135377,0,0,0.29135377,-12.490955,-6.7404435)">
    <g
       id="g17">
      <use
         xlink:href="#m2693456868"
         x="195.47919"
         y="43.959999"
         style="stroke:#000000;stroke-width:0.8"
         id="use17" />
    </g>
  </g>
  <g
     id="text_4"
     transform="matrix(0.62442239,0,0,0.62442239,-77.618869,-17.145663)">
    <!-- 4 -->
    <g
       transform="matrix(0.1,0,0,-0.1,192.29794,34.880313)"
       id="g18">
      <defs
         id="defs17">
        <path
           id="DejaVuSans-34"
           d="M 2419,4116 825,1625 h 1594 z m -166,550 h 794 V 1625 h 666 V 1100 H 3047 V 0 H 2419 V 1100 H 313 v 609 z"
           transform="scale(0.015625)" />
      </defs>
      <use
         xlink:href="#DejaVuSans-34"
         id="use18" />
    </g>
  </g>
  <g
     id="line2d_13"
     transform="matrix(0.29135377,0,0,0.29135377,-12.490955,-6.7404435)">
    <path
       d="M 230.8174,397.34208 V 43.96"
       clip-path="url(#pc328678bd1)"
       style="fill:none;stroke:#d1d5db;stroke-width:0.8;stroke-linecap:square"
       id="path18" />
  </g>
  <g
     id="line2d_14"
     transform="matrix(0.29135377,0,0,0.29135377,-12.490955,-6.7404435)">
    <g
       id="g19">
      <use
         xlink:href="#maeecb28aa8"
         x="230.8174"
         y="397.34207"
         style="stroke:#000000;stroke-width:0.8"
         id="use19" />
    </g>
  </g>
  <g
     id="line2d_15"
     transform="matrix(0.29135377,0,0,0.29135377,-12.490955,-6.7404435)">
    <g
       id="g20">
      <use
         xlink:href="#m2693456868"
         x="230.8174"
         y="43.959999"
         style="stroke:#000000;stroke-width:0.8"
         id="use20" />
    </g>
  </g>
  <g
     id="text_5"
     transform="matrix(0.62442239,0,0,0.62442239,-89.372808,-17.145663)">
    <!-- 5 -->
    <g
       transform="matrix(0.1,0,0,-0.1,227.63615,34.880313)"
       id="g21">
      <defs
         id="defs20">
        <path
           id="DejaVuSans-35"
           d="M 691,4666 H 3169 V 4134 H 1269 V 2991 q 137,47 274,70 138,23 276,23 781,0 1237,-428 457,-428 457,-1159 Q 3513,744 3044,326 2575,-91 1722,-91 1428,-91 1123,-41 819,9 494,109 v 635 q 281,-153 581,-228 300,-75 634,-75 541,0 856,284 316,284 316,772 0,487 -316,771 -315,285 -856,285 -253,0 -505,-56 -251,-56 -513,-175 z"
           transform="scale(0.015625)" />
      </defs>
      <use
         xlink:href="#DejaVuSans-35"
         id="use21" />
    </g>
  </g>
  <g
     id="line2d_16"
     transform="matrix(0.29135377,0,0,0.29135377,-12.490955,-6.7404435)">
    <path
       d="M 266.1556,397.34208 V 43.96"
       clip-path="url(#pc328678bd1)"
       style="fill:none;stroke:#d1d5db;stroke-width:0.8;stroke-linecap:square"
       id="path21" />
  </g>
  <g
     id="line2d_17"
     transform="matrix(0.29135377,0,0,0.29135377,-12.490955,-6.7404435)">
    <g
       id="g22">
      <use
         xlink:href="#maeecb28aa8"
         x="266.15561"
         y="397.34207"
         style="stroke:#000000;stroke-width:0.8"
         id="use22" />
    </g>
  </g>
  <g
     id="line2d_18"
     transform="matrix(0.29135377,0,0,0.29135377,-12.490955,-6.7404435)">
    <g
       id="g23">
      <use
         xlink:href="#m2693456868"
         x="266.15561"
         y="43.959999"
         style="stroke:#000000;stroke-width:0.8"
         id="use23" />
    </g>
  </g>
  <g
     id="text_6"
     transform="matrix(0.62442239,0,0,0.62442239,-101.18918,-17.145663)">
    <!-- 6 -->
    <g
       transform="matrix(0.1,0,0,-0.1,262.97435,34.880313)"
       id="g24">
      <defs
         id="defs23">
        <path
           id="DejaVuSans-36"
           d="m 2113,2584 q -425,0 -674,-291 -248,-290 -248,-796 0,-503 248,-796 249,-292 674,-292 425,0 673,292 248,293 248,796 0,506 -248,796 -248,291 -673,291 z m 1253,1979 v -575 q -238,112 -480,171 -242,60 -480,60 -625,0 -955,-422 -329,-422 -376,-1275 184,272 462,417 279,145 613,145 703,0 1111,-427 408,-426 408,-1160 0,-719 -425,-1154 -425,-434 -1131,-434 -810,0 -1238,620 -428,621 -428,1799 0,1106 525,1764 525,658 1409,658 238,0 480,-47 242,-47 505,-140 z"
           transform="scale(0.015625)" />
      </defs>
      <use
         xlink:href="#DejaVuSans-36"
         id="use24" />
    </g>
  </g>
  <g
     id="line2d_19"
     transform="matrix(0.29135377,0,0,0.29135377,-12.490955,-6.7404435)">
    <path
       d="M 301.49381,397.34208 V 43.96"
       clip-path="url(#pc328678bd1)"
       style="fill:none;stroke:#d1d5db;stroke-width:0.8;stroke-linecap:square"
       id="path24" />
  </g>
  <g
     id="line2d_20"
     transform="matrix(0.29135377,0,0,0.29135377,-12.490955,-6.7404435)">
    <g
       id="g25">
      <use
         xlink:href="#maeecb28aa8"
         x="301.4938"
         y="397.34207"
         style="stroke:#000000;stroke-width:0.8"
         id="use25" />
    </g>
  </g>
  <g
     id="line2d_21"
     transform="matrix(0.29135377,0,0,0.29135377,-12.490955,-6.7404435)">
    <g
       id="g26">
      <use
         xlink:href="#m2693456868"
         x="301.4938"
         y="43.959999"
         style="stroke:#000000;stroke-width:0.8"
         id="use26" />
    </g>
  </g>
  <g
     id="text_7"
     transform="matrix(0.62442239,0,0,0.62442239,-112.92019,-17.145663)">
    <!-- 7 -->
    <g
       transform="matrix(0.1,0,0,-0.1,298.31256,34.880313)"
       id="g27">
      <defs
         id="defs26">
        <path
           id="DejaVuSans-37"
           d="M 525,4666 H 3525 V 4397 L 1831,0 H 1172 L 2766,4134 H 525 Z"
           transform="scale(0.015625)" />
      </defs>
      <use
         xlink:href="#DejaVuSans-37"
         id="use27" />
    </g>
  </g>
  <g
     id="line2d_22"
     transform="matrix(0.29135377,0,0,0.29135377,-12.490955,-6.7404435)">
    <path
       d="M 336.83202,397.34208 V 43.96"
       clip-path="url(#pc328678bd1)"
       style="fill:none;stroke:#d1d5db;stroke-width:0.8;stroke-linecap:square"
       id="path27" />
  </g>
  <g
     id="line2d_23"
     transform="matrix(0.29135377,0,0,0.29135377,-12.490955,-6.7404435)">
    <g
       id="g28">
      <use
         xlink:href="#maeecb28aa8"
         x="336.83203"
         y="397.34207"
         style="stroke:#000000;stroke-width:0.8"
         id="use28" />
    </g>
  </g>
  <g
     id="line2d_24"
     transform="matrix(0.29135377,0,0,0.29135377,-12.490955,-6.7404435)">
    <g
       id="g29">
      <use
         xlink:href="#m2693456868"
         x="336.83203"
         y="43.959999"
         style="stroke:#000000;stroke-width:0.8"
         id="use29" />
    </g>
  </g>
  <g
     id="text_8"
     transform="matrix(0.62442239,0,0,0.62442239,-124.69218,-17.145663)">
    <!-- 8 -->
    <g
       transform="matrix(0.1,0,0,-0.1,333.65077,34.880313)"
       id="g30">
      <defs
         id="defs29">
        <path
           id="DejaVuSans-38"
           d="m 2034,2216 q -450,0 -708,-241 -257,-241 -257,-662 0,-422 257,-663 258,-241 708,-241 450,0 709,242 260,243 260,662 0,421 -258,662 -257,241 -711,241 z m -631,268 q -406,100 -633,378 -226,279 -226,679 0,559 398,884 399,325 1092,325 697,0 1094,-325 397,-325 397,-884 0,-400 -227,-679 -226,-278 -629,-378 456,-106 710,-416 255,-309 255,-755 Q 3634,634 3220,271 2806,-91 2034,-91 1263,-91 848,271 434,634 434,1313 q 0,446 256,755 257,310 713,416 z m -231,997 q 0,-362 226,-565 227,-203 636,-203 407,0 636,203 230,203 230,565 0,363 -230,566 -229,203 -636,203 -409,0 -636,-203 -226,-203 -226,-566 z"
           transform="scale(0.015625)" />
      </defs>
      <use
         xlink:href="#DejaVuSans-38"
         id="use30" />
    </g>
  </g>
  <g
     id="line2d_25"
     transform="matrix(0.29135377,0,0,0.29135377,-12.490955,-6.7404435)">
    <path
       d="M 372.17023,397.34208 V 43.96"
       clip-path="url(#pc328678bd1)"
       style="fill:none;stroke:#d1d5db;stroke-width:0.8;stroke-linecap:square"
       id="path30" />
  </g>
  <g
     id="line2d_26"
     transform="matrix(0.29135377,0,0,0.29135377,-12.490955,-6.7404435)">
    <g
       id="g31">
      <use
         xlink:href="#maeecb28aa8"
         x="372.17023"
         y="397.34207"
         style="stroke:#000000;stroke-width:0.8"
         id="use31" />
    </g>
  </g>
  <g
     id="line2d_27"
     transform="matrix(0.29135377,0,0,0.29135377,-12.490955,-6.7404435)">
    <g
       id="g32">
      <use
         xlink:href="#m2693456868"
         x="372.17023"
         y="43.959999"
         style="stroke:#000000;stroke-width:0.8"
         id="use32" />
    </g>
  </g>
  <g
     id="text_9"
     transform="matrix(0.62442239,0,0,0.62442239,-136.43441,-17.145663)">
    <!-- 9 -->
    <g
       transform="matrix(0.1,0,0,-0.1,368.98898,34.880313)"
       id="g33">
      <defs
         id="defs32">
        <path
           id="DejaVuSans-39"
           d="m 703,97 v 575 q 238,-113 481,-172 244,-59 479,-59 625,0 954,420 330,420 377,1277 -181,-269 -460,-413 -278,-144 -615,-144 -700,0 -1108,423 -408,424 -408,1159 0,718 425,1152 425,435 1131,435 810,0 1236,-621 427,-620 427,-1801 Q 3622,1225 3098,567 2575,-91 1691,-91 1453,-91 1209,-44 966,3 703,97 Z m 1256,1978 q 425,0 673,290 249,291 249,798 0,503 -249,795 -248,292 -673,292 -425,0 -673,-292 -248,-292 -248,-795 0,-507 248,-798 248,-290 673,-290 z"
           transform="scale(0.015625)" />
      </defs>
      <use
         xlink:href="#DejaVuSans-39"
         id="use33" />
    </g>
  </g>
  <g
     id="line2d_28"
     transform="matrix(0.29135377,0,0,0.29135377,-12.490955,-6.7404435)">
    <path
       d="M 407.50844,397.34208 V 43.96"
       clip-path="url(#pc328678bd1)"
       style="fill:none;stroke:#d1d5db;stroke-width:0.8;stroke-linecap:square"
       id="path33" />
  </g>
  <g
     id="line2d_29"
     transform="matrix(0.29135377,0,0,0.29135377,-12.490955,-6.7404435)">
    <g
       id="g34">
      <use
         xlink:href="#maeecb28aa8"
         x="407.50842"
         y="397.34207"
         style="stroke:#000000;stroke-width:0.8"
         id="use34" />
    </g>
  </g>
  <g
     id="line2d_30"
     transform="matrix(0.29135377,0,0,0.29135377,-12.490955,-6.7404435)">
    <g
       id="g35">
      <use
         xlink:href="#m2693456868"
         x="407.50842"
         y="43.959999"
         style="stroke:#000000;stroke-width:0.8"
         id="use35" />
    </g>
  </g>
  <g
     id="text_10"
     transform="matrix(0.62442239,0,0,0.62442239,-148.3561,-17.145663)">
    <!-- 10 -->
    <g
       transform="matrix(0.1,0,0,-0.1,401.14594,34.880313)"
       id="g37">
      <defs
         id="defs35">
        <path
           id="DejaVuSans-30"
           d="m 2034,4250 q -487,0 -733,-480 -245,-479 -245,-1442 0,-959 245,-1439 246,-480 733,-480 491,0 736,480 246,480 246,1439 0,963 -246,1442 -245,480 -736,480 z m 0,500 q 785,0 1199,-621 414,-620 414,-1801 0,-1178 -414,-1799 -414,-620 -1199,-620 -784,0 -1198,620 -414,621 -414,1799 0,1181 414,1801 414,621 1198,621 z"
           transform="scale(0.015625)" />
      </defs>
      <use
         xlink:href="#DejaVuSans-31"
         id="use36" />
      <use
         xlink:href="#DejaVuSans-30"
         transform="translate(63.623047)"
         id="use37" />
    </g>
  </g>
  <g
     id="text_11"
     transform="matrix(0.29135377,0,0,0.29135377,-12.490955,-6.7404435)">
    <!-- atom index -->
  </g>
  <g
     id="line2d_31"
     transform="matrix(0.29135377,0,0,0.29135377,-12.490955,-6.7404435)">
    <path
       d="M 71.79546,61.629104 H 425.17754"
       clip-path="url(#pc328678bd1)"
       style="fill:none;stroke:#d1d5db;stroke-width:0.8;stroke-linecap:square"
       id="path47" />
  </g>
  <g
     id="line2d_32"
     transform="matrix(0.29135377,0,0,0.29135377,-12.490955,-6.7404435)">
    <defs
       id="defs47">
      <path
         id="m165d143fdc"
         d="M 0,0 H -3.5"
         style="stroke:#000000;stroke-width:0.8" />
    </defs>
    <g
       id="g48">
      <use
         xlink:href="#m165d143fdc"
         x="71.795464"
         y="61.629105"
         style="stroke:#000000;stroke-width:0.8"
         id="use48" />
    </g>
  </g>
  <g
     transform="matrix(0.0617231,0,0,-0.0617231,1.175755,14.698197)"
     id="g49">
    <use
       xlink:href="#DejaVuSans-31"
       id="use49" />
  </g>
  <g
     id="line2d_33"
     transform="matrix(0.29135377,0,0,0.29135377,-12.490955,-6.7404435)">
    <path
       d="M 71.79546,96.967312 H 425.17754"
       clip-path="url(#pc328678bd1)"
       style="fill:none;stroke:#d1d5db;stroke-width:0.8;stroke-linecap:square"
       id="path49" />
  </g>
  <g
     id="line2d_34"
     transform="matrix(0.29135377,0,0,0.29135377,-12.490955,-6.7404435)">
    <g
       id="g50">
      <use
         xlink:href="#m165d143fdc"
         x="71.795464"
         y="96.967316"
         style="stroke:#000000;stroke-width:0.8"
         id="use50" />
    </g>
  </g>
  <g
     id="text_13"
     transform="matrix(0.60631579,0,0,0.60631579,-34.125926,-36.140463)">
    <!-- 2 -->
    <g
       transform="matrix(0.1,0,0,-0.1,58.43296,100.76653)"
       id="g51">
      <use
         xlink:href="#DejaVuSans-32"
         id="use51" />
    </g>
  </g>
  <g
     id="line2d_35"
     transform="matrix(0.29135377,0,0,0.29135377,-12.490955,-6.7404435)">
    <path
       d="M 71.79546,132.30552 H 425.17754"
       clip-path="url(#pc328678bd1)"
       style="fill:none;stroke:#d1d5db;stroke-width:0.8;stroke-linecap:square"
       id="path51" />
  </g>
  <g
     id="line2d_36"
     transform="matrix(0.29135377,0,0,0.29135377,-12.490955,-6.7404435)">
    <g
       id="g52">
      <use
         xlink:href="#m165d143fdc"
         x="71.795464"
         y="132.30553"
         style="stroke:#000000;stroke-width:0.8"
         id="use52" />
    </g>
  </g>
  <g
     id="text_14"
     transform="matrix(0.59491841,0,0,0.59491841,-33.460606,-45.804013)">
    <!-- 3 -->
    <g
       transform="matrix(0.1,0,0,-0.1,58.43296,136.10474)"
       id="g53">
      <use
         xlink:href="#DejaVuSans-33"
         id="use53" />
    </g>
  </g>
  <g
     id="line2d_37"
     transform="matrix(0.29135377,0,0,0.29135377,-12.490955,-6.7404435)">
    <path
       d="M 71.79546,167.64373 H 425.17754"
       clip-path="url(#pc328678bd1)"
       style="fill:none;stroke:#d1d5db;stroke-width:0.8;stroke-linecap:square"
       id="path53" />
  </g>
  <g
     id="line2d_38"
     transform="matrix(0.29135377,0,0,0.29135377,-12.490955,-6.7404435)">
    <g
       id="g54">
      <use
         xlink:href="#m165d143fdc"
         x="71.795464"
         y="167.64372"
         style="stroke:#000000;stroke-width:0.8"
         id="use54" />
    </g>
  </g>
  <g
     id="text_15"
     transform="matrix(0.61723103,0,0,0.61723103,-34.692306,-60.233953)">
    <!-- 4 -->
    <g
       transform="matrix(0.1,0,0,-0.1,58.43296,171.44295)"
       id="g55">
      <use
         xlink:href="#DejaVuSans-34"
         id="use55" />
    </g>
  </g>
  <g
     id="line2d_39"
     transform="matrix(0.29135377,0,0,0.29135377,-12.490955,-6.7404435)">
    <path
       d="M 71.79546,202.98194 H 425.17754"
       clip-path="url(#pc328678bd1)"
       style="fill:none;stroke:#d1d5db;stroke-width:0.8;stroke-linecap:square"
       id="path55" />
  </g>
  <g
     id="line2d_40"
     transform="matrix(0.29135377,0,0,0.29135377,-12.490955,-6.7404435)">
    <g
       id="g56">
      <use
         xlink:href="#m165d143fdc"
         x="71.795464"
         y="202.98193"
         style="stroke:#000000;stroke-width:0.8"
         id="use56" />
    </g>
  </g>
  <g
     id="text_16"
     transform="matrix(0.60542359,0,0,0.60542359,-34.085406,-69.394396)">
    <!-- 5 -->
    <g
       transform="matrix(0.1,0,0,-0.1,58.43296,206.78115)"
       id="g57">
      <use
         xlink:href="#DejaVuSans-35"
         id="use57" />
    </g>
  </g>
  <g
     id="line2d_41"
     transform="matrix(0.29135377,0,0,0.29135377,-12.490955,-6.7404435)">
    <path
       d="M 71.79546,238.32014 H 425.17754"
       clip-path="url(#pc328678bd1)"
       style="fill:none;stroke:#d1d5db;stroke-width:0.8;stroke-linecap:square"
       id="path57" />
  </g>
  <g
     id="line2d_42"
     transform="matrix(0.29135377,0,0,0.29135377,-12.490955,-6.7404435)">
    <g
       id="g58">
      <use
         xlink:href="#m165d143fdc"
         x="71.795464"
         y="238.32014"
         style="stroke:#000000;stroke-width:0.8"
         id="use58" />
    </g>
  </g>
  <g
     id="text_17"
     transform="matrix(0.59491841,0,0,0.59491841,-33.441156,-77.986299)">
    <!-- 6 -->
    <g
       transform="matrix(0.1,0,0,-0.1,58.43296,242.11936)"
       id="g59">
      <use
         xlink:href="#DejaVuSans-36"
         id="use59" />
    </g>
  </g>
  <g
     id="line2d_43"
     transform="matrix(0.29135377,0,0,0.29135377,-12.490955,-6.7404435)">
    <path
       d="M 71.79546,273.65835 H 425.17754"
       clip-path="url(#pc328678bd1)"
       style="fill:none;stroke:#d1d5db;stroke-width:0.8;stroke-linecap:square"
       id="path59" />
  </g>
  <g
     id="line2d_44"
     transform="matrix(0.29135377,0,0,0.29135377,-12.490955,-6.7404435)">
    <g
       id="g60">
      <use
         xlink:href="#m165d143fdc"
         x="71.795464"
         y="273.65836"
         style="stroke:#000000;stroke-width:0.8"
         id="use60" />
    </g>
  </g>
  <g
     id="text_18"
     transform="matrix(0.61723103,0,0,0.61723103,-34.800246,-94.781708)">
    <!-- 7 -->
    <g
       transform="matrix(0.1,0,0,-0.1,58.43296,277.45757)"
       id="g61">
      <use
         xlink:href="#DejaVuSans-37"
         id="use61" />
    </g>
  </g>
  <g
     id="line2d_45"
     transform="matrix(0.29135377,0,0,0.29135377,-12.490955,-6.7404435)">
    <path
       d="M 71.79546,308.99656 H 425.17754"
       clip-path="url(#pc328678bd1)"
       style="fill:none;stroke:#d1d5db;stroke-width:0.8;stroke-linecap:square"
       id="path61" />
  </g>
  <g
     id="line2d_46"
     transform="matrix(0.29135377,0,0,0.29135377,-12.490955,-6.7404435)">
    <g
       id="g62">
      <use
         xlink:href="#m165d143fdc"
         x="71.795464"
         y="308.99655"
         style="stroke:#000000;stroke-width:0.8"
         id="use62" />
    </g>
  </g>
  <g
     id="text_19"
     transform="matrix(0.59491841,0,0,0.59491841,-33.434986,-99.441161)">
    <!-- 8 -->
    <g
       transform="matrix(0.1,0,0,-0.1,58.43296,312.79578)"
       id="g63">
      <use
         xlink:href="#DejaVuSans-38"
         id="use63" />
    </g>
  </g>
  <g
     id="line2d_47"
     transform="matrix(0.29135377,0,0,0.29135377,-12.490955,-6.7404435)">
    <path
       d="M 71.79546,344.33477 H 425.17754"
       clip-path="url(#pc328678bd1)"
       style="fill:none;stroke:#d1d5db;stroke-width:0.8;stroke-linecap:square"
       id="path63" />
  </g>
  <g
     id="line2d_48"
     transform="matrix(0.29135377,0,0,0.29135377,-12.490955,-6.7404435)">
    <g
       id="g64">
      <use
         xlink:href="#m165d143fdc"
         x="71.795464"
         y="344.33478"
         style="stroke:#000000;stroke-width:0.8"
         id="use64" />
    </g>
  </g>
  <g
     id="text_20"
     transform="matrix(0.59491841,0,0,0.59491841,-33.420286,-110.16859)">
    <!-- 9 -->
    <g
       transform="matrix(0.1,0,0,-0.1,58.43296,348.13399)"
       id="g65">
      <use
         xlink:href="#DejaVuSans-39"
         id="use65" />
    </g>
  </g>
  <g
     id="line2d_49"
     transform="matrix(0.29135377,0,0,0.29135377,-12.490955,-6.7404435)">
    <path
       d="M 71.79546,379.67298 H 425.17754"
       clip-path="url(#pc328678bd1)"
       style="fill:none;stroke:#d1d5db;stroke-width:0.8;stroke-linecap:square"
       id="path65" />
  </g>
  <g
     id="line2d_50"
     transform="matrix(0.29135377,0,0,0.29135377,-12.490955,-6.7404435)">
    <g
       id="g66">
      <use
         xlink:href="#m165d143fdc"
         x="71.795464"
         y="379.67297"
         style="stroke:#000000;stroke-width:0.8"
         id="use66" />
    </g>
  </g>
  <g
     id="text_21"
     transform="matrix(0.59491841,0,0,0.59491841,-31.631156,-120.89602)">
    <!-- 10 -->
    <g
       transform="matrix(0.1,0,0,-0.1,52.07046,383.47219)"
       id="g68">
      <use
         xlink:href="#DejaVuSans-31"
         id="use67" />
      <use
         xlink:href="#DejaVuSans-30"
         transform="translate(63.623047)"
         id="use68" />
    </g>
  </g>
  <g
     id="line2d_51"
     transform="matrix(0.29135377,0,0,0.29135377,-12.490955,-6.7404435)">
    <defs
       id="defs78">
      <path
         id="m428f798ad2"
         d="m -6.5,6.5 h 13 v -13 h -13 z"
         style="stroke:#111827;stroke-linejoin:miter" />
    </defs>
    <g
       clip-path="url(#pc328678bd1)"
       id="g112">
      <use
         xlink:href="#m428f798ad2"
         x="89.464561"
         y="61.629105"
         style="fill:#111827;stroke:#111827;stroke-linejoin:miter"
         id="use79" />
      <use
         xlink:href="#m428f798ad2"
         x="160.14098"
         y="61.629105"
         style="fill:#111827;stroke:#111827;stroke-linejoin:miter"
         id="use80" />
      <use
         xlink:href="#m428f798ad2"
         x="230.8174"
         y="61.629105"
         style="fill:#111827;stroke:#111827;stroke-linejoin:miter"
         id="use81" />
      <use
         xlink:href="#m428f798ad2"
         x="336.83203"
         y="61.629105"
         style="fill:#111827;stroke:#111827;stroke-linejoin:miter"
         id="use82" />
      <use
         xlink:href="#m428f798ad2"
         x="407.50842"
         y="61.629105"
         style="fill:#111827;stroke:#111827;stroke-linejoin:miter"
         id="use83" />
      <use
         xlink:href="#m428f798ad2"
         x="124.80277"
         y="96.967316"
         style="fill:#111827;stroke:#111827;stroke-linejoin:miter"
         id="use84" />
      <use
         xlink:href="#m428f798ad2"
         x="195.47919"
         y="96.967316"
         style="fill:#111827;stroke:#111827;stroke-linejoin:miter"
         id="use85" />
      <use
         xlink:href="#m428f798ad2"
         x="266.15561"
         y="96.967316"
         style="fill:#111827;stroke:#111827;stroke-linejoin:miter"
         id="use86" />
      <use
         xlink:href="#m428f798ad2"
         x="336.83203"
         y="96.967316"
         style="fill:#111827;stroke:#111827;stroke-linejoin:miter"
         id="use87" />
      <use
         xlink:href="#m428f798ad2"
         x="407.50842"
         y="96.967316"
         style="fill:#111827;stroke:#111827;stroke-linejoin:miter"
         id="use88" />
      <use
         xlink:href="#m428f798ad2"
         x="89.464561"
         y="132.30553"
         style="fill:#111827;stroke:#111827;stroke-linejoin:miter"
         id="use89" />
      <use
         xlink:href="#m428f798ad2"
         x="160.14098"
         y="132.30553"
         style="fill:#111827;stroke:#111827;stroke-linejoin:miter"
         id="use90" />
      <use
         xlink:href="#m428f798ad2"
         x="301.4938"
         y="132.30553"
         style="fill:#111827;stroke:#111827;stroke-linejoin:miter"
         id="use91" />
      <use
         xlink:href="#m428f798ad2"
         x="124.80277"
         y="167.64372"
         style="fill:#111827;stroke:#111827;stroke-linejoin:miter"
         id="use92" />
      <use
         xlink:href="#m428f798ad2"
         x="195.47919"
         y="167.64372"
         style="fill:#111827;stroke:#111827;stroke-linejoin:miter"
         id="use93" />
      <use
         xlink:href="#m428f798ad2"
         x="301.4938"
         y="167.64372"
         style="fill:#111827;stroke:#111827;stroke-linejoin:miter"
         id="use94" />
      <use
         xlink:href="#m428f798ad2"
         x="89.464561"
         y="202.98193"
         style="fill:#111827;stroke:#111827;stroke-linejoin:miter"
         id="use95" />
      <use
         xlink:href="#m428f798ad2"
         x="230.8174"
         y="202.98193"
         style="fill:#111827;stroke:#111827;stroke-linejoin:miter"
         id="use96" />
      <use
         xlink:href="#m428f798ad2"
         x="372.17023"
         y="202.98193"
         style="fill:#111827;stroke:#111827;stroke-linejoin:miter"
         id="use97" />
      <use
         xlink:href="#m428f798ad2"
         x="124.80277"
         y="238.32014"
         style="fill:#111827;stroke:#111827;stroke-linejoin:miter"
         id="use98" />
      <use
         xlink:href="#m428f798ad2"
         x="266.15561"
         y="238.32014"
         style="fill:#111827;stroke:#111827;stroke-linejoin:miter"
         id="use99" />
      <use
         xlink:href="#m428f798ad2"
         x="372.17023"
         y="238.32014"
         style="fill:#111827;stroke:#111827;stroke-linejoin:miter"
         id="use100" />
      <use
         xlink:href="#m428f798ad2"
         x="160.14098"
         y="273.65836"
         style="fill:#111827;stroke:#111827;stroke-linejoin:miter"
         id="use101" />
      <use
         xlink:href="#m428f798ad2"
         x="195.47919"
         y="273.65836"
         style="fill:#111827;stroke:#111827;stroke-linejoin:miter"
         id="use102" />
      <use
         xlink:href="#m428f798ad2"
         x="301.4938"
         y="273.65836"
         style="fill:#111827;stroke:#111827;stroke-linejoin:miter"
         id="use103" />
      <use
         xlink:href="#m428f798ad2"
         x="89.464561"
         y="308.99655"
         style="fill:#111827;stroke:#111827;stroke-linejoin:miter"
         id="use104" />
      <use
         xlink:href="#m428f798ad2"
         x="124.80277"
         y="308.99655"
         style="fill:#111827;stroke:#111827;stroke-linejoin:miter"
         id="use105" />
      <use
         xlink:href="#m428f798ad2"
         x="336.83203"
         y="308.99655"
         style="fill:#111827;stroke:#111827;stroke-linejoin:miter"
         id="use106" />
      <use
         xlink:href="#m428f798ad2"
         x="230.8174"
         y="344.33478"
         style="fill:#111827;stroke:#111827;stroke-linejoin:miter"
         id="use107" />
      <use
         xlink:href="#m428f798ad2"
         x="266.15561"
         y="344.33478"
         style="fill:#111827;stroke:#111827;stroke-linejoin:miter"
         id="use108" />
      <use
         xlink:href="#m428f798ad2"
         x="372.17023"
         y="344.33478"
         style="fill:#111827;stroke:#111827;stroke-linejoin:miter"
         id="use109" />
      <use
         xlink:href="#m428f798ad2"
         x="89.464561"
         y="379.67297"
         style="fill:#111827;stroke:#111827;stroke-linejoin:miter"
         id="use110" />
      <use
         xlink:href="#m428f798ad2"
         x="124.80277"
         y="379.67297"
         style="fill:#111827;stroke:#111827;stroke-linejoin:miter"
         id="use111" />
      <use
         xlink:href="#m428f798ad2"
         x="407.50842"
         y="379.67297"
         style="fill:#111827;stroke:#111827;stroke-linejoin:miter"
         id="use112" />
    </g>
  </g>
  <g
     id="patch_3"
     transform="matrix(0.29135377,0,0,0.29135377,-12.490955,-6.7404435)">
    <path
       d="M 71.79546,397.34208 V 43.96"
       style="fill:none;stroke:#000000;stroke-width:0.8;stroke-linecap:square;stroke-linejoin:miter"
       id="path112" />
  </g>
  <g
     id="patch_4"
     transform="matrix(0.29135377,0,0,0.29135377,-12.490955,-6.7404435)">
    <path
       d="M 425.17754,397.34208 V 43.96"
       style="fill:none;stroke:#000000;stroke-width:0.8;stroke-linecap:square;stroke-linejoin:miter"
       id="path113" />
  </g>
  <g
     id="patch_5"
     transform="matrix(0.29135377,0,0,0.29135377,-12.490955,-6.7404435)">
    <path
       d="M 71.79546,397.34208 H 425.17754"
       style="fill:none;stroke:#000000;stroke-width:0.8;stroke-linecap:square;stroke-linejoin:miter"
       id="path114" />
  </g>
  <g
     id="patch_6"
     transform="matrix(0.29135377,0,0,0.29135377,-12.490955,-6.7404435)">
    <path
       d="M 71.79546,43.96 H 425.17754"
       style="fill:none;stroke:#000000;stroke-width:0.8;stroke-linecap:square;stroke-linejoin:miter"
       id="path115" />
  </g>
  <defs
     id="defs232">
    <clipPath
       id="pc328678bd1">
      <rect
         x="71.795464"
         y="43.959999"
         width="353.38208"
         height="353.38208"
         id="rect232" />
    </clipPath>
  </defs>
</svg>
