<svg xmlns="http://www.w3.org/2000/svg" width="760" height="430" viewBox="0 0 760 430">
  <defs>
    <linearGradient id="bg" x1="0" x2="1" y1="0" y2="1"><stop offset="0" stop-color="#eef2ff"/><stop offset=".6" stop-color="#fff7ed"/><stop offset="1" stop-color="#fdf2f8"/></linearGradient>
    <pattern id="dotHatch" width="7" height="7" patternUnits="userSpaceOnUse" patternTransform="rotate(-25)"><line x1="0" y1="0" x2="0" y2="7" stroke="#fb7185" stroke-width="1.5" opacity=".6"/></pattern>
    <style>.ink{stroke:#111827;stroke-linecap:round;stroke-linejoin:round;fill:none}.label{font-family:"Comic Sans MS","Bradley Hand","Segoe Print",cursive;fill:#111827}</style>
  </defs>
  <rect x="18" y="18" width="724" height="394" rx="22" fill="url(#bg)"/>
  <path class="ink" d="M105 348 C240 351 520 346 670 349" stroke-width="3"/>
  <path class="ink" d="M105 348 C103 275 108 160 106 82" stroke-width="3"/>
  <text class="label" x="235" y="62" font-size="38">Instance Size vs Runtime</text>
  <g stroke="#111827" stroke-width="2.3" fill="#fecdd3">
    <circle cx="160" cy="303" r="13"/><circle cx="224" cy="274" r="13"/><circle cx="288" cy="284" r="13"/><circle cx="356" cy="246" r="13"/><circle cx="386" cy="231" r="13"/><circle cx="455" cy="210" r="13"/><circle cx="498" cy="184" r="13"/><circle cx="590" cy="126" r="13"/><circle cx="640" cy="104" r="13"/>
  </g>
  <g fill="url(#dotHatch)" opacity=".75">
    <circle cx="160" cy="303" r="11"/><circle cx="224" cy="274" r="11"/><circle cx="288" cy="284" r="11"/><circle cx="356" cy="246" r="11"/><circle cx="386" cy="231" r="11"/><circle cx="455" cy="210" r="11"/><circle cx="498" cy="184" r="11"/><circle cx="590" cy="126" r="11"/><circle cx="640" cy="104" r="11"/>
  </g>
  <text class="label" x="302" y="392" font-size="22">number of vertices</text>
  <text class="label" x="34" y="235" font-size="22" transform="rotate(-90 34 235)">runtime (s)</text>
</svg>

